G04 EAGLE Gerber RS-274X export*
G75*
%MOMM*%
%FSLAX34Y34*%
%LPD*%
%INSoldermask Bottom*%
%IPNEG*%
%AMOC8*
5,1,8,0,0,1.08239X$1,22.5*%
G01*
%ADD10C,5.203200*%
%ADD11R,2.003200X1.803200*%
%ADD12R,1.203200X1.303200*%
%ADD13R,1.303200X1.203200*%
%ADD14R,2.903200X1.803200*%
%ADD15R,3.003200X2.603200*%
%ADD16R,2.003200X1.753200*%
%ADD17R,2.303200X1.703200*%
%ADD18R,0.803200X2.403200*%
%ADD19R,1.403200X0.503200*%
%ADD20R,3.759200X2.235200*%
%ADD21R,6.403200X5.603200*%
%ADD22R,1.803200X1.203200*%
%ADD23R,0.703200X2.403200*%
%ADD24C,2.133600*%
%ADD25P,4.343848X8X202.500000*%
%ADD26P,3.700908X8X202.500000*%
%ADD27C,0.959600*%


D10*
X50800Y74930D03*
D11*
X647700Y87600D03*
X647700Y115600D03*
D12*
X381000Y59300D03*
X381000Y42300D03*
X400050Y78350D03*
X400050Y61350D03*
D13*
X300600Y88900D03*
X283600Y88900D03*
X300600Y114300D03*
X283600Y114300D03*
D14*
X831850Y45750D03*
X831850Y17750D03*
D13*
X840350Y107950D03*
X823350Y107950D03*
D15*
X736600Y95000D03*
X736600Y32000D03*
D16*
X622300Y100650D03*
X622300Y77150D03*
D12*
X622300Y46600D03*
X622300Y29600D03*
X381000Y80400D03*
X381000Y97400D03*
D17*
X647700Y26450D03*
X647700Y62450D03*
D18*
X349250Y43850D03*
X349250Y95850D03*
X361950Y43850D03*
X336550Y43850D03*
X323850Y43850D03*
X361950Y95850D03*
X336550Y95850D03*
X323850Y95850D03*
D19*
G36*
X461684Y80067D02*
X451763Y89988D01*
X455322Y93547D01*
X465243Y83626D01*
X461684Y80067D01*
G37*
G36*
X465219Y83602D02*
X455298Y93523D01*
X458857Y97082D01*
X468778Y87161D01*
X465219Y83602D01*
G37*
G36*
X468755Y87138D02*
X458834Y97059D01*
X462393Y100618D01*
X472314Y90697D01*
X468755Y87138D01*
G37*
G36*
X472290Y90673D02*
X462369Y100594D01*
X465928Y104153D01*
X475849Y94232D01*
X472290Y90673D01*
G37*
G36*
X475826Y94209D02*
X465905Y104130D01*
X469464Y107689D01*
X479385Y97768D01*
X475826Y94209D01*
G37*
G36*
X479361Y97744D02*
X469440Y107665D01*
X472999Y111224D01*
X482920Y101303D01*
X479361Y97744D01*
G37*
G36*
X482897Y101280D02*
X472976Y111201D01*
X476535Y114760D01*
X486456Y104839D01*
X482897Y101280D01*
G37*
G36*
X486432Y104815D02*
X476511Y114736D01*
X480070Y118295D01*
X489991Y108374D01*
X486432Y104815D01*
G37*
G36*
X489968Y108351D02*
X480047Y118272D01*
X483606Y121831D01*
X493527Y111910D01*
X489968Y108351D01*
G37*
G36*
X493503Y111886D02*
X483582Y121807D01*
X487141Y125366D01*
X497062Y115445D01*
X493503Y111886D01*
G37*
G36*
X497039Y115422D02*
X487118Y125343D01*
X490677Y128902D01*
X500598Y118981D01*
X497039Y115422D01*
G37*
G36*
X500574Y118957D02*
X490653Y128878D01*
X494212Y132437D01*
X504133Y122516D01*
X500574Y118957D01*
G37*
G36*
X511867Y122516D02*
X521788Y132437D01*
X525347Y128878D01*
X515426Y118957D01*
X511867Y122516D01*
G37*
G36*
X515402Y118981D02*
X525323Y128902D01*
X528882Y125343D01*
X518961Y115422D01*
X515402Y118981D01*
G37*
G36*
X518938Y115445D02*
X528859Y125366D01*
X532418Y121807D01*
X522497Y111886D01*
X518938Y115445D01*
G37*
G36*
X522473Y111910D02*
X532394Y121831D01*
X535953Y118272D01*
X526032Y108351D01*
X522473Y111910D01*
G37*
G36*
X526009Y108374D02*
X535930Y118295D01*
X539489Y114736D01*
X529568Y104815D01*
X526009Y108374D01*
G37*
G36*
X529544Y104839D02*
X539465Y114760D01*
X543024Y111201D01*
X533103Y101280D01*
X529544Y104839D01*
G37*
G36*
X533080Y101303D02*
X543001Y111224D01*
X546560Y107665D01*
X536639Y97744D01*
X533080Y101303D01*
G37*
G36*
X536615Y97768D02*
X546536Y107689D01*
X550095Y104130D01*
X540174Y94209D01*
X536615Y97768D01*
G37*
G36*
X540151Y94232D02*
X550072Y104153D01*
X553631Y100594D01*
X543710Y90673D01*
X540151Y94232D01*
G37*
G36*
X543686Y90697D02*
X553607Y100618D01*
X557166Y97059D01*
X547245Y87138D01*
X543686Y90697D01*
G37*
G36*
X547222Y87161D02*
X557143Y97082D01*
X560702Y93523D01*
X550781Y83602D01*
X547222Y87161D01*
G37*
G36*
X550758Y83626D02*
X560679Y93547D01*
X564238Y89988D01*
X554317Y80067D01*
X550758Y83626D01*
G37*
G36*
X554317Y72333D02*
X564238Y62412D01*
X560679Y58853D01*
X550758Y68774D01*
X554317Y72333D01*
G37*
G36*
X550781Y68798D02*
X560702Y58877D01*
X557143Y55318D01*
X547222Y65239D01*
X550781Y68798D01*
G37*
G36*
X547245Y65262D02*
X557166Y55341D01*
X553607Y51782D01*
X543686Y61703D01*
X547245Y65262D01*
G37*
G36*
X543710Y61727D02*
X553631Y51806D01*
X550072Y48247D01*
X540151Y58168D01*
X543710Y61727D01*
G37*
G36*
X540174Y58191D02*
X550095Y48270D01*
X546536Y44711D01*
X536615Y54632D01*
X540174Y58191D01*
G37*
G36*
X536639Y54656D02*
X546560Y44735D01*
X543001Y41176D01*
X533080Y51097D01*
X536639Y54656D01*
G37*
G36*
X533103Y51120D02*
X543024Y41199D01*
X539465Y37640D01*
X529544Y47561D01*
X533103Y51120D01*
G37*
G36*
X529568Y47585D02*
X539489Y37664D01*
X535930Y34105D01*
X526009Y44026D01*
X529568Y47585D01*
G37*
G36*
X526032Y44049D02*
X535953Y34128D01*
X532394Y30569D01*
X522473Y40490D01*
X526032Y44049D01*
G37*
G36*
X522497Y40514D02*
X532418Y30593D01*
X528859Y27034D01*
X518938Y36955D01*
X522497Y40514D01*
G37*
G36*
X518961Y36978D02*
X528882Y27057D01*
X525323Y23498D01*
X515402Y33419D01*
X518961Y36978D01*
G37*
G36*
X515426Y33443D02*
X525347Y23522D01*
X521788Y19963D01*
X511867Y29884D01*
X515426Y33443D01*
G37*
G36*
X504133Y29884D02*
X494212Y19963D01*
X490653Y23522D01*
X500574Y33443D01*
X504133Y29884D01*
G37*
G36*
X500598Y33419D02*
X490677Y23498D01*
X487118Y27057D01*
X497039Y36978D01*
X500598Y33419D01*
G37*
G36*
X497062Y36955D02*
X487141Y27034D01*
X483582Y30593D01*
X493503Y40514D01*
X497062Y36955D01*
G37*
G36*
X493527Y40490D02*
X483606Y30569D01*
X480047Y34128D01*
X489968Y44049D01*
X493527Y40490D01*
G37*
G36*
X489991Y44026D02*
X480070Y34105D01*
X476511Y37664D01*
X486432Y47585D01*
X489991Y44026D01*
G37*
G36*
X486456Y47561D02*
X476535Y37640D01*
X472976Y41199D01*
X482897Y51120D01*
X486456Y47561D01*
G37*
G36*
X482920Y51097D02*
X472999Y41176D01*
X469440Y44735D01*
X479361Y54656D01*
X482920Y51097D01*
G37*
G36*
X479385Y54632D02*
X469464Y44711D01*
X465905Y48270D01*
X475826Y58191D01*
X479385Y54632D01*
G37*
G36*
X475849Y58168D02*
X465928Y48247D01*
X462369Y51806D01*
X472290Y61727D01*
X475849Y58168D01*
G37*
G36*
X472314Y61703D02*
X462393Y51782D01*
X458834Y55341D01*
X468755Y65262D01*
X472314Y61703D01*
G37*
G36*
X468778Y65239D02*
X458857Y55318D01*
X455298Y58877D01*
X465219Y68798D01*
X468778Y65239D01*
G37*
G36*
X465243Y68774D02*
X455322Y58853D01*
X451763Y62412D01*
X461684Y72333D01*
X465243Y68774D01*
G37*
D20*
X685800Y76200D03*
X685800Y127000D03*
D21*
X140100Y73660D03*
D22*
X213100Y96460D03*
X213100Y50860D03*
D12*
X745100Y133350D03*
X728100Y133350D03*
D13*
X241300Y110100D03*
X241300Y93100D03*
X241300Y59300D03*
X241300Y42300D03*
D12*
X404250Y19050D03*
X421250Y19050D03*
X783200Y133350D03*
X766200Y133350D03*
X766200Y19050D03*
X783200Y19050D03*
X353450Y19050D03*
X370450Y19050D03*
X315350Y19050D03*
X332350Y19050D03*
X283600Y63500D03*
X300600Y63500D03*
D23*
X806450Y44660D03*
X793850Y44660D03*
X781150Y44660D03*
X768450Y44660D03*
X806450Y107740D03*
X793750Y107740D03*
X781050Y107740D03*
X768350Y107740D03*
D24*
X101600Y12700D03*
X127000Y12700D03*
X368300Y127000D03*
X393700Y127000D03*
X419100Y127000D03*
X444500Y127000D03*
X101600Y133350D03*
X127000Y133350D03*
X571500Y12700D03*
D25*
X925322Y76454D03*
X865378Y76454D03*
D26*
X895096Y28194D03*
D24*
X590550Y127000D03*
X546100Y12700D03*
X450850Y12700D03*
D27*
X296672Y77216D03*
X505968Y89408D03*
X735584Y73152D03*
X714248Y70612D03*
X538480Y67056D03*
X499872Y50800D03*
X794512Y125984D03*
X709168Y128016D03*
X563880Y104140D03*
X629412Y62484D03*
X662432Y83312D03*
X479552Y65024D03*
X497840Y83312D03*
X425450Y69850D03*
X434086Y102616D03*
X444754Y92964D03*
X501142Y14224D03*
X546608Y132334D03*
X398272Y95504D03*
X463296Y22352D03*
X440944Y24384D03*
X424688Y30480D03*
X410464Y36576D03*
X410464Y91440D03*
X422148Y103632D03*
X531114Y93218D03*
X455168Y103632D03*
X510032Y73152D03*
X447040Y54864D03*
X434848Y42672D03*
X382016Y30480D03*
X298704Y48768D03*
X371856Y30480D03*
X288544Y99568D03*
X256032Y32512D03*
X737616Y52832D03*
X499872Y73152D03*
X215900Y127000D03*
X467360Y37338D03*
X538480Y79248D03*
X514096Y54864D03*
X475488Y30480D03*
X577342Y79248D03*
X571754Y61468D03*
M02*
