G04 EAGLE Gerber RS-274X export*
G75*
%MOMM*%
%FSLAX34Y34*%
%LPD*%
%IN*%
%IPPOS*%
%AMOC8*
5,1,8,0,0,1.08239X$1,22.5*%
G01*
%ADD10C,0.000000*%


D10*
X0Y12700D02*
X50800Y12700D01*
X50800Y0D01*
X914400Y0D01*
X914400Y19050D01*
X990400Y19050D01*
X990400Y130050D01*
X914400Y130050D01*
X914400Y148590D01*
X50800Y148590D01*
X50800Y136400D01*
X0Y136400D01*
X0Y12700D01*
X25800Y74930D02*
X25808Y75544D01*
X25830Y76157D01*
X25868Y76769D01*
X25920Y77380D01*
X25988Y77990D01*
X26071Y78598D01*
X26168Y79204D01*
X26280Y79807D01*
X26407Y80408D01*
X26549Y81005D01*
X26706Y81598D01*
X26876Y82187D01*
X27062Y82772D01*
X27261Y83352D01*
X27475Y83927D01*
X27703Y84497D01*
X27945Y85061D01*
X28200Y85619D01*
X28469Y86170D01*
X28752Y86715D01*
X29048Y87252D01*
X29357Y87783D01*
X29679Y88305D01*
X30013Y88819D01*
X30360Y89325D01*
X30720Y89822D01*
X31091Y90311D01*
X31475Y90790D01*
X31870Y91259D01*
X32276Y91719D01*
X32694Y92169D01*
X33122Y92608D01*
X33561Y93036D01*
X34011Y93454D01*
X34471Y93860D01*
X34940Y94255D01*
X35419Y94639D01*
X35908Y95010D01*
X36405Y95370D01*
X36911Y95717D01*
X37425Y96051D01*
X37947Y96373D01*
X38478Y96682D01*
X39015Y96978D01*
X39560Y97261D01*
X40111Y97530D01*
X40669Y97785D01*
X41233Y98027D01*
X41803Y98255D01*
X42378Y98469D01*
X42958Y98668D01*
X43543Y98854D01*
X44132Y99024D01*
X44725Y99181D01*
X45322Y99323D01*
X45923Y99450D01*
X46526Y99562D01*
X47132Y99659D01*
X47740Y99742D01*
X48350Y99810D01*
X48961Y99862D01*
X49573Y99900D01*
X50186Y99922D01*
X50800Y99930D01*
X51414Y99922D01*
X52027Y99900D01*
X52639Y99862D01*
X53250Y99810D01*
X53860Y99742D01*
X54468Y99659D01*
X55074Y99562D01*
X55677Y99450D01*
X56278Y99323D01*
X56875Y99181D01*
X57468Y99024D01*
X58057Y98854D01*
X58642Y98668D01*
X59222Y98469D01*
X59797Y98255D01*
X60367Y98027D01*
X60931Y97785D01*
X61489Y97530D01*
X62040Y97261D01*
X62585Y96978D01*
X63122Y96682D01*
X63653Y96373D01*
X64175Y96051D01*
X64689Y95717D01*
X65195Y95370D01*
X65692Y95010D01*
X66181Y94639D01*
X66660Y94255D01*
X67129Y93860D01*
X67589Y93454D01*
X68039Y93036D01*
X68478Y92608D01*
X68906Y92169D01*
X69324Y91719D01*
X69730Y91259D01*
X70125Y90790D01*
X70509Y90311D01*
X70880Y89822D01*
X71240Y89325D01*
X71587Y88819D01*
X71921Y88305D01*
X72243Y87783D01*
X72552Y87252D01*
X72848Y86715D01*
X73131Y86170D01*
X73400Y85619D01*
X73655Y85061D01*
X73897Y84497D01*
X74125Y83927D01*
X74339Y83352D01*
X74538Y82772D01*
X74724Y82187D01*
X74894Y81598D01*
X75051Y81005D01*
X75193Y80408D01*
X75320Y79807D01*
X75432Y79204D01*
X75529Y78598D01*
X75612Y77990D01*
X75680Y77380D01*
X75732Y76769D01*
X75770Y76157D01*
X75792Y75544D01*
X75800Y74930D01*
X75792Y74316D01*
X75770Y73703D01*
X75732Y73091D01*
X75680Y72480D01*
X75612Y71870D01*
X75529Y71262D01*
X75432Y70656D01*
X75320Y70053D01*
X75193Y69452D01*
X75051Y68855D01*
X74894Y68262D01*
X74724Y67673D01*
X74538Y67088D01*
X74339Y66508D01*
X74125Y65933D01*
X73897Y65363D01*
X73655Y64799D01*
X73400Y64241D01*
X73131Y63690D01*
X72848Y63145D01*
X72552Y62608D01*
X72243Y62077D01*
X71921Y61555D01*
X71587Y61041D01*
X71240Y60535D01*
X70880Y60038D01*
X70509Y59549D01*
X70125Y59070D01*
X69730Y58601D01*
X69324Y58141D01*
X68906Y57691D01*
X68478Y57252D01*
X68039Y56824D01*
X67589Y56406D01*
X67129Y56000D01*
X66660Y55605D01*
X66181Y55221D01*
X65692Y54850D01*
X65195Y54490D01*
X64689Y54143D01*
X64175Y53809D01*
X63653Y53487D01*
X63122Y53178D01*
X62585Y52882D01*
X62040Y52599D01*
X61489Y52330D01*
X60931Y52075D01*
X60367Y51833D01*
X59797Y51605D01*
X59222Y51391D01*
X58642Y51192D01*
X58057Y51006D01*
X57468Y50836D01*
X56875Y50679D01*
X56278Y50537D01*
X55677Y50410D01*
X55074Y50298D01*
X54468Y50201D01*
X53860Y50118D01*
X53250Y50050D01*
X52639Y49998D01*
X52027Y49960D01*
X51414Y49938D01*
X50800Y49930D01*
X50186Y49938D01*
X49573Y49960D01*
X48961Y49998D01*
X48350Y50050D01*
X47740Y50118D01*
X47132Y50201D01*
X46526Y50298D01*
X45923Y50410D01*
X45322Y50537D01*
X44725Y50679D01*
X44132Y50836D01*
X43543Y51006D01*
X42958Y51192D01*
X42378Y51391D01*
X41803Y51605D01*
X41233Y51833D01*
X40669Y52075D01*
X40111Y52330D01*
X39560Y52599D01*
X39015Y52882D01*
X38478Y53178D01*
X37947Y53487D01*
X37425Y53809D01*
X36911Y54143D01*
X36405Y54490D01*
X35908Y54850D01*
X35419Y55221D01*
X34940Y55605D01*
X34471Y56000D01*
X34011Y56406D01*
X33561Y56824D01*
X33122Y57252D01*
X32694Y57691D01*
X32276Y58141D01*
X31870Y58601D01*
X31475Y59070D01*
X31091Y59549D01*
X30720Y60038D01*
X30360Y60535D01*
X30013Y61041D01*
X29679Y61555D01*
X29357Y62077D01*
X29048Y62608D01*
X28752Y63145D01*
X28469Y63690D01*
X28200Y64241D01*
X27945Y64799D01*
X27703Y65363D01*
X27475Y65933D01*
X27261Y66508D01*
X27062Y67088D01*
X26876Y67673D01*
X26706Y68262D01*
X26549Y68855D01*
X26407Y69452D01*
X26280Y70053D01*
X26168Y70656D01*
X26071Y71262D01*
X25988Y71870D01*
X25920Y72480D01*
X25868Y73091D01*
X25830Y73703D01*
X25808Y74316D01*
X25800Y74930D01*
M02*
