M48
;GenerationSoftware,Autodesk,EAGLE,9.2.2*%
;CreationDate,2018-11-04T20:10:58Z*%
FMAT,2
ICI,OFF
METRIC,TZ,000.000
T5C0.350
T4C0.914
T3C2.200
T2C2.600
T1C5.000
%
G90
M71
T1
X5080Y7493
T2
X92532Y7645
X86538Y7645
T3
X89510Y2819
T4
X12700Y13335
X10160Y1270
X12700Y1270
X36830Y12700
X39370Y12700
X41910Y12700
X44450Y12700
X10160Y13335
X57150Y1270
X59055Y12700
X54610Y1270
X45085Y1270
T5
X50114Y1422
X54661Y13233
X39827Y9550
X46330Y2235
X44094Y2438
X42469Y3048
X41046Y3658
X41046Y9144
X42215Y10363
X53111Y9322
X45517Y10363
X51003Y7315
X44704Y5486
X43485Y4267
X70917Y12802
X29870Y4877
X37186Y3048
X28854Y9957
X25603Y3251
X73762Y5283
X49987Y7315
X21590Y12700
X46736Y3734
X53848Y7925
X51410Y5486
X47549Y3048
X57734Y7925
X57175Y6147
X29667Y7722
X50597Y8941
X73558Y7315
X71425Y7061
X53848Y6706
X49987Y5080
X79451Y12598
X56388Y10414
X38202Y3048
X62941Y6248
X66243Y8331
X47955Y6502
X49784Y8331
X42545Y6985
X43409Y10262
X44475Y9296
M30