G04 EAGLE Gerber RS-274X export*
G75*
%MOMM*%
%FSLAX34Y34*%
%LPD*%
%INTop Copper*%
%IPPOS*%
%AMOC8*
5,1,8,0,0,1.08239X$1,22.5*%
G01*
%ADD10R,1.100000X1.000000*%
%ADD11R,1.000000X1.100000*%
%ADD12R,1.000000X0.800000*%
%ADD13R,2.000000X1.600000*%
%ADD14R,1.600000X2.000000*%
%ADD15C,1.930400*%
%ADD16P,4.123906X8X202.500000*%
%ADD17P,3.480966X8X202.500000*%
%ADD18R,3.500000X0.400000*%
%ADD19C,0.152400*%
%ADD20C,0.254000*%
%ADD21C,0.756400*%
%ADD22C,0.609600*%

G36*
X88845Y10174D02*
X88845Y10174D01*
X88924Y10177D01*
X88965Y10193D01*
X89009Y10200D01*
X89079Y10238D01*
X89153Y10267D01*
X89187Y10295D01*
X89226Y10316D01*
X89281Y10373D01*
X89342Y10424D01*
X89365Y10462D01*
X89396Y10494D01*
X89429Y10566D01*
X89471Y10634D01*
X89481Y10677D01*
X89499Y10717D01*
X89508Y10796D01*
X89526Y10874D01*
X89523Y10932D01*
X89526Y10961D01*
X89521Y10989D01*
X89518Y11041D01*
X89497Y11177D01*
X100838Y11177D01*
X100858Y11180D01*
X100877Y11178D01*
X100979Y11200D01*
X101081Y11217D01*
X101098Y11226D01*
X101118Y11230D01*
X101207Y11283D01*
X101298Y11332D01*
X101312Y11346D01*
X101329Y11356D01*
X101396Y11435D01*
X101467Y11510D01*
X101476Y11528D01*
X101489Y11543D01*
X101527Y11639D01*
X101571Y11733D01*
X101573Y11753D01*
X101581Y11771D01*
X101599Y11938D01*
X101599Y12701D01*
X102362Y12701D01*
X102382Y12704D01*
X102401Y12702D01*
X102503Y12724D01*
X102605Y12741D01*
X102622Y12750D01*
X102642Y12754D01*
X102731Y12807D01*
X102822Y12856D01*
X102836Y12870D01*
X102853Y12880D01*
X102920Y12959D01*
X102991Y13034D01*
X103000Y13052D01*
X103013Y13067D01*
X103052Y13163D01*
X103095Y13257D01*
X103097Y13277D01*
X103105Y13295D01*
X103123Y13462D01*
X103123Y24803D01*
X104455Y24593D01*
X106280Y23999D01*
X107990Y23128D01*
X109543Y22000D01*
X110900Y20643D01*
X112028Y19090D01*
X112899Y17380D01*
X113511Y15498D01*
X113529Y15464D01*
X113538Y15426D01*
X113573Y15373D01*
X113599Y15315D01*
X113614Y15299D01*
X113624Y15280D01*
X113651Y15253D01*
X113673Y15220D01*
X113722Y15181D01*
X113765Y15134D01*
X113785Y15123D01*
X113800Y15108D01*
X113834Y15092D01*
X113866Y15067D01*
X113925Y15046D01*
X113981Y15016D01*
X114004Y15011D01*
X114022Y15002D01*
X114059Y14998D01*
X114097Y14984D01*
X114160Y14983D01*
X114223Y14972D01*
X114246Y14975D01*
X114267Y14973D01*
X114303Y14980D01*
X114343Y14980D01*
X114403Y14999D01*
X114466Y15008D01*
X114487Y15018D01*
X114507Y15023D01*
X114540Y15041D01*
X114578Y15053D01*
X114629Y15091D01*
X114685Y15119D01*
X114702Y15136D01*
X114720Y15147D01*
X114745Y15175D01*
X114777Y15198D01*
X114813Y15250D01*
X114857Y15295D01*
X114871Y15320D01*
X114882Y15332D01*
X114894Y15360D01*
X114900Y15372D01*
X114919Y15399D01*
X114924Y15416D01*
X114938Y15442D01*
X116664Y19607D01*
X120093Y23036D01*
X124575Y24893D01*
X129425Y24893D01*
X133907Y23036D01*
X137336Y19607D01*
X139193Y15125D01*
X139193Y10922D01*
X139196Y10902D01*
X139194Y10883D01*
X139216Y10781D01*
X139232Y10679D01*
X139242Y10662D01*
X139246Y10642D01*
X139299Y10553D01*
X139348Y10462D01*
X139362Y10448D01*
X139372Y10431D01*
X139451Y10364D01*
X139526Y10292D01*
X139544Y10284D01*
X139559Y10271D01*
X139655Y10232D01*
X139749Y10189D01*
X139769Y10187D01*
X139787Y10179D01*
X139954Y10161D01*
X301958Y10161D01*
X302029Y10172D01*
X302101Y10174D01*
X302150Y10192D01*
X302201Y10200D01*
X302264Y10234D01*
X302332Y10259D01*
X302372Y10291D01*
X302418Y10316D01*
X302468Y10368D01*
X302524Y10412D01*
X302552Y10456D01*
X302588Y10494D01*
X302618Y10559D01*
X302657Y10619D01*
X302670Y10670D01*
X302691Y10717D01*
X302699Y10788D01*
X302717Y10858D01*
X302713Y10910D01*
X302719Y10961D01*
X302703Y11032D01*
X302698Y11103D01*
X302677Y11151D01*
X302666Y11202D01*
X302629Y11263D01*
X302601Y11329D01*
X302557Y11385D01*
X302540Y11413D01*
X302522Y11428D01*
X302497Y11460D01*
X301459Y12498D01*
X301459Y25602D01*
X302948Y27091D01*
X304800Y27091D01*
X304820Y27094D01*
X304839Y27092D01*
X304941Y27114D01*
X305043Y27130D01*
X305060Y27140D01*
X305080Y27144D01*
X305169Y27197D01*
X305260Y27246D01*
X305274Y27260D01*
X305291Y27270D01*
X305358Y27349D01*
X305430Y27424D01*
X305438Y27442D01*
X305451Y27457D01*
X305490Y27553D01*
X305533Y27647D01*
X305535Y27667D01*
X305543Y27685D01*
X305561Y27852D01*
X305561Y29298D01*
X305558Y29318D01*
X305560Y29337D01*
X305538Y29439D01*
X305522Y29541D01*
X305512Y29558D01*
X305508Y29578D01*
X305455Y29667D01*
X305406Y29758D01*
X305392Y29772D01*
X305382Y29789D01*
X305303Y29856D01*
X305228Y29928D01*
X305210Y29936D01*
X305195Y29949D01*
X305099Y29988D01*
X305005Y30031D01*
X304985Y30033D01*
X304967Y30041D01*
X304800Y30059D01*
X302948Y30059D01*
X301459Y31548D01*
X301459Y34544D01*
X301458Y34554D01*
X301458Y34560D01*
X301457Y34568D01*
X301458Y34583D01*
X301436Y34685D01*
X301420Y34787D01*
X301410Y34804D01*
X301406Y34824D01*
X301353Y34913D01*
X301304Y35004D01*
X301290Y35018D01*
X301280Y35035D01*
X301201Y35102D01*
X301126Y35174D01*
X301108Y35182D01*
X301093Y35195D01*
X300997Y35234D01*
X300903Y35277D01*
X300883Y35279D01*
X300865Y35287D01*
X300698Y35305D01*
X295050Y35305D01*
X289305Y41050D01*
X289305Y54200D01*
X295304Y60199D01*
X300698Y60199D01*
X300718Y60202D01*
X300737Y60200D01*
X300839Y60222D01*
X300941Y60238D01*
X300958Y60248D01*
X300978Y60252D01*
X301067Y60305D01*
X301158Y60354D01*
X301172Y60368D01*
X301189Y60378D01*
X301256Y60457D01*
X301328Y60532D01*
X301336Y60550D01*
X301349Y60565D01*
X301388Y60661D01*
X301431Y60755D01*
X301433Y60775D01*
X301441Y60793D01*
X301459Y60960D01*
X301459Y63702D01*
X302948Y65191D01*
X304800Y65191D01*
X304820Y65194D01*
X304839Y65192D01*
X304941Y65214D01*
X305043Y65230D01*
X305060Y65240D01*
X305080Y65244D01*
X305169Y65297D01*
X305260Y65346D01*
X305274Y65360D01*
X305291Y65370D01*
X305358Y65449D01*
X305430Y65524D01*
X305438Y65542D01*
X305451Y65557D01*
X305490Y65653D01*
X305533Y65747D01*
X305535Y65767D01*
X305543Y65785D01*
X305561Y65952D01*
X305561Y68898D01*
X305558Y68918D01*
X305560Y68937D01*
X305538Y69039D01*
X305522Y69141D01*
X305512Y69158D01*
X305508Y69178D01*
X305455Y69267D01*
X305406Y69358D01*
X305392Y69372D01*
X305382Y69389D01*
X305303Y69456D01*
X305228Y69528D01*
X305210Y69536D01*
X305195Y69549D01*
X305099Y69588D01*
X305005Y69631D01*
X304985Y69633D01*
X304967Y69641D01*
X304800Y69659D01*
X301448Y69659D01*
X299904Y71203D01*
X299809Y71271D01*
X299716Y71340D01*
X299710Y71342D01*
X299705Y71346D01*
X299593Y71380D01*
X299482Y71417D01*
X299475Y71417D01*
X299470Y71418D01*
X299353Y71415D01*
X299236Y71414D01*
X299229Y71412D01*
X299224Y71412D01*
X299206Y71406D01*
X299075Y71368D01*
X297930Y70893D01*
X295414Y70893D01*
X293090Y71856D01*
X291312Y73634D01*
X290349Y75958D01*
X290349Y78474D01*
X291312Y80798D01*
X293090Y82576D01*
X295414Y83539D01*
X297930Y83539D01*
X300257Y82575D01*
X300259Y82572D01*
X300346Y82516D01*
X300430Y82456D01*
X300449Y82450D01*
X300466Y82440D01*
X300566Y82414D01*
X300665Y82384D01*
X300685Y82384D01*
X300704Y82379D01*
X300807Y82387D01*
X300911Y82390D01*
X300930Y82397D01*
X300949Y82399D01*
X301044Y82439D01*
X301142Y82475D01*
X301157Y82487D01*
X301176Y82495D01*
X301307Y82600D01*
X301448Y82741D01*
X312928Y82741D01*
X312948Y82744D01*
X312967Y82742D01*
X313069Y82764D01*
X313171Y82780D01*
X313188Y82790D01*
X313208Y82794D01*
X313297Y82847D01*
X313388Y82896D01*
X313402Y82910D01*
X313419Y82920D01*
X313486Y82999D01*
X313558Y83074D01*
X313566Y83092D01*
X313579Y83107D01*
X313618Y83203D01*
X313661Y83297D01*
X313663Y83317D01*
X313671Y83335D01*
X313689Y83502D01*
X313689Y86948D01*
X313686Y86968D01*
X313688Y86987D01*
X313666Y87089D01*
X313650Y87191D01*
X313640Y87208D01*
X313636Y87228D01*
X313583Y87317D01*
X313534Y87408D01*
X313520Y87422D01*
X313510Y87439D01*
X313431Y87506D01*
X313356Y87578D01*
X313338Y87586D01*
X313323Y87599D01*
X313227Y87638D01*
X313133Y87681D01*
X313113Y87683D01*
X313095Y87691D01*
X312928Y87709D01*
X310523Y87709D01*
X310523Y94488D01*
X310520Y94508D01*
X310522Y94527D01*
X310500Y94629D01*
X310483Y94731D01*
X310474Y94748D01*
X310470Y94768D01*
X310417Y94857D01*
X310368Y94948D01*
X310354Y94962D01*
X310344Y94979D01*
X310265Y95046D01*
X310190Y95117D01*
X310172Y95126D01*
X310157Y95139D01*
X310061Y95178D01*
X309967Y95221D01*
X309947Y95223D01*
X309929Y95231D01*
X309762Y95249D01*
X308999Y95249D01*
X308999Y95251D01*
X309762Y95251D01*
X309782Y95254D01*
X309801Y95252D01*
X309903Y95274D01*
X310005Y95291D01*
X310022Y95300D01*
X310042Y95304D01*
X310131Y95357D01*
X310222Y95406D01*
X310236Y95420D01*
X310253Y95430D01*
X310320Y95509D01*
X310391Y95584D01*
X310400Y95602D01*
X310413Y95617D01*
X310452Y95713D01*
X310495Y95807D01*
X310497Y95827D01*
X310505Y95845D01*
X310523Y96012D01*
X310523Y102791D01*
X312928Y102791D01*
X312948Y102794D01*
X312967Y102792D01*
X313069Y102814D01*
X313171Y102830D01*
X313188Y102840D01*
X313208Y102844D01*
X313297Y102897D01*
X313388Y102946D01*
X313402Y102960D01*
X313419Y102970D01*
X313486Y103049D01*
X313558Y103124D01*
X313566Y103142D01*
X313579Y103157D01*
X313618Y103253D01*
X313661Y103347D01*
X313663Y103367D01*
X313671Y103385D01*
X313689Y103552D01*
X313689Y105498D01*
X313686Y105518D01*
X313688Y105537D01*
X313666Y105639D01*
X313650Y105741D01*
X313640Y105758D01*
X313636Y105778D01*
X313583Y105867D01*
X313534Y105958D01*
X313520Y105972D01*
X313510Y105989D01*
X313431Y106056D01*
X313356Y106128D01*
X313338Y106136D01*
X313323Y106149D01*
X313227Y106188D01*
X313133Y106231D01*
X313113Y106233D01*
X313095Y106241D01*
X312928Y106259D01*
X310523Y106259D01*
X310523Y113538D01*
X310520Y113558D01*
X310522Y113577D01*
X310500Y113679D01*
X310483Y113781D01*
X310474Y113798D01*
X310470Y113818D01*
X310417Y113907D01*
X310368Y113998D01*
X310354Y114012D01*
X310344Y114029D01*
X310265Y114096D01*
X310190Y114167D01*
X310172Y114176D01*
X310157Y114189D01*
X310061Y114228D01*
X309967Y114271D01*
X309947Y114273D01*
X309929Y114281D01*
X309762Y114299D01*
X308999Y114299D01*
X308999Y115062D01*
X308996Y115082D01*
X308998Y115101D01*
X308976Y115203D01*
X308959Y115305D01*
X308950Y115322D01*
X308946Y115342D01*
X308893Y115431D01*
X308844Y115522D01*
X308830Y115536D01*
X308820Y115553D01*
X308741Y115620D01*
X308666Y115691D01*
X308648Y115700D01*
X308633Y115713D01*
X308537Y115752D01*
X308443Y115795D01*
X308423Y115797D01*
X308405Y115805D01*
X308238Y115823D01*
X301459Y115823D01*
X301459Y119888D01*
X301456Y119908D01*
X301458Y119927D01*
X301436Y120029D01*
X301420Y120131D01*
X301410Y120148D01*
X301406Y120168D01*
X301353Y120257D01*
X301304Y120348D01*
X301290Y120362D01*
X301280Y120379D01*
X301201Y120446D01*
X301126Y120518D01*
X301108Y120526D01*
X301093Y120539D01*
X300997Y120578D01*
X300903Y120621D01*
X300883Y120623D01*
X300865Y120631D01*
X300698Y120649D01*
X275749Y120649D01*
X275659Y120635D01*
X275568Y120627D01*
X275539Y120615D01*
X275507Y120610D01*
X275426Y120567D01*
X275342Y120531D01*
X275310Y120505D01*
X275289Y120494D01*
X275267Y120471D01*
X275211Y120426D01*
X271825Y117040D01*
X271783Y116982D01*
X271734Y116930D01*
X271712Y116883D01*
X271681Y116841D01*
X271660Y116772D01*
X271630Y116707D01*
X271624Y116655D01*
X271609Y116605D01*
X271611Y116534D01*
X271603Y116463D01*
X271614Y116412D01*
X271615Y116360D01*
X271640Y116292D01*
X271655Y116222D01*
X271682Y116177D01*
X271700Y116129D01*
X271745Y116073D01*
X271782Y116011D01*
X271821Y115977D01*
X271854Y115937D01*
X271914Y115898D01*
X271968Y115851D01*
X272017Y115832D01*
X272061Y115804D01*
X272130Y115786D01*
X272197Y115759D01*
X272268Y115751D01*
X272299Y115743D01*
X272322Y115745D01*
X272363Y115741D01*
X275752Y115741D01*
X277241Y114252D01*
X277241Y94265D01*
X277252Y94195D01*
X277254Y94123D01*
X277272Y94074D01*
X277280Y94023D01*
X277314Y93959D01*
X277339Y93892D01*
X277371Y93851D01*
X277396Y93805D01*
X277447Y93756D01*
X277492Y93700D01*
X277536Y93672D01*
X277574Y93636D01*
X277639Y93606D01*
X277699Y93567D01*
X277750Y93554D01*
X277797Y93532D01*
X277868Y93524D01*
X277938Y93507D01*
X277990Y93511D01*
X278041Y93505D01*
X278112Y93520D01*
X278183Y93526D01*
X278231Y93546D01*
X278282Y93557D01*
X278343Y93594D01*
X278409Y93622D01*
X278465Y93667D01*
X278493Y93684D01*
X278508Y93701D01*
X278540Y93727D01*
X282126Y97313D01*
X282194Y97407D01*
X282264Y97501D01*
X282266Y97507D01*
X282269Y97512D01*
X282304Y97624D01*
X282340Y97735D01*
X282340Y97741D01*
X282342Y97747D01*
X282339Y97864D01*
X282338Y97981D01*
X282336Y97988D01*
X282335Y97993D01*
X282329Y98011D01*
X282291Y98142D01*
X282221Y98310D01*
X282221Y100826D01*
X283184Y103150D01*
X284962Y104928D01*
X287286Y105891D01*
X289802Y105891D01*
X292126Y104928D01*
X293904Y103150D01*
X294867Y100826D01*
X294867Y98310D01*
X293904Y95986D01*
X292126Y94208D01*
X289802Y93245D01*
X287715Y93245D01*
X287625Y93231D01*
X287534Y93223D01*
X287505Y93211D01*
X287473Y93206D01*
X287392Y93163D01*
X287308Y93127D01*
X287276Y93101D01*
X287255Y93090D01*
X287233Y93067D01*
X287177Y93022D01*
X257000Y62846D01*
X256972Y62807D01*
X256937Y62774D01*
X256901Y62707D01*
X256857Y62646D01*
X256843Y62600D01*
X256820Y62558D01*
X256807Y62483D01*
X256784Y62411D01*
X256786Y62363D01*
X256777Y62315D01*
X256789Y62241D01*
X256791Y62165D01*
X256807Y62120D01*
X256814Y62072D01*
X256849Y62005D01*
X256875Y61934D01*
X256905Y61896D01*
X256927Y61854D01*
X256982Y61801D01*
X257029Y61742D01*
X257069Y61716D01*
X257104Y61682D01*
X257172Y61650D01*
X257236Y61609D01*
X257282Y61597D01*
X257326Y61576D01*
X257401Y61567D01*
X257474Y61549D01*
X257522Y61552D01*
X257570Y61547D01*
X257697Y61566D01*
X257720Y61568D01*
X257726Y61570D01*
X257736Y61572D01*
X258366Y61741D01*
X265177Y61741D01*
X265177Y49962D01*
X265180Y49942D01*
X265178Y49923D01*
X265200Y49821D01*
X265217Y49719D01*
X265226Y49702D01*
X265230Y49682D01*
X265283Y49593D01*
X265332Y49502D01*
X265346Y49488D01*
X265356Y49471D01*
X265435Y49404D01*
X265510Y49333D01*
X265528Y49324D01*
X265543Y49311D01*
X265639Y49272D01*
X265733Y49229D01*
X265753Y49227D01*
X265771Y49219D01*
X265938Y49201D01*
X266701Y49201D01*
X266701Y49199D01*
X265938Y49199D01*
X265918Y49196D01*
X265899Y49198D01*
X265797Y49176D01*
X265695Y49159D01*
X265678Y49150D01*
X265658Y49146D01*
X265569Y49093D01*
X265478Y49044D01*
X265464Y49030D01*
X265447Y49020D01*
X265380Y48941D01*
X265309Y48866D01*
X265300Y48848D01*
X265287Y48833D01*
X265248Y48737D01*
X265205Y48643D01*
X265203Y48623D01*
X265195Y48605D01*
X265177Y48438D01*
X265177Y36659D01*
X262297Y36659D01*
X262252Y36652D01*
X262206Y36654D01*
X262131Y36632D01*
X262054Y36620D01*
X262014Y36598D01*
X261970Y36585D01*
X261906Y36541D01*
X261837Y36504D01*
X261805Y36471D01*
X261768Y36445D01*
X261721Y36383D01*
X261668Y36326D01*
X261648Y36285D01*
X261621Y36248D01*
X261597Y36174D01*
X261564Y36103D01*
X261559Y36057D01*
X261545Y36014D01*
X261545Y35936D01*
X261537Y35859D01*
X261547Y35814D01*
X261547Y35768D01*
X261585Y35636D01*
X261589Y35618D01*
X261592Y35614D01*
X261594Y35607D01*
X262355Y33770D01*
X262355Y31254D01*
X261392Y28930D01*
X259614Y27152D01*
X257290Y26189D01*
X254774Y26189D01*
X252450Y27152D01*
X250672Y28930D01*
X249709Y31254D01*
X249709Y33849D01*
X249695Y33939D01*
X249687Y34030D01*
X249675Y34059D01*
X249670Y34091D01*
X249627Y34172D01*
X249591Y34256D01*
X249565Y34288D01*
X249554Y34309D01*
X249531Y34331D01*
X249486Y34387D01*
X248157Y35716D01*
X248157Y63344D01*
X250315Y65502D01*
X274173Y89360D01*
X274215Y89418D01*
X274264Y89470D01*
X274286Y89517D01*
X274317Y89559D01*
X274338Y89628D01*
X274368Y89693D01*
X274374Y89745D01*
X274389Y89795D01*
X274387Y89866D01*
X274395Y89937D01*
X274384Y89988D01*
X274383Y90040D01*
X274358Y90108D01*
X274343Y90178D01*
X274316Y90223D01*
X274298Y90271D01*
X274253Y90327D01*
X274216Y90389D01*
X274177Y90423D01*
X274144Y90463D01*
X274084Y90502D01*
X274030Y90549D01*
X273981Y90568D01*
X273937Y90596D01*
X273868Y90614D01*
X273801Y90641D01*
X273730Y90649D01*
X273699Y90657D01*
X273676Y90655D01*
X273635Y90659D01*
X257648Y90659D01*
X256159Y92148D01*
X256159Y114252D01*
X257648Y115741D01*
X262636Y115741D01*
X262656Y115744D01*
X262675Y115742D01*
X262777Y115764D01*
X262879Y115780D01*
X262896Y115790D01*
X262916Y115794D01*
X263005Y115847D01*
X263096Y115896D01*
X263110Y115910D01*
X263127Y115920D01*
X263194Y115999D01*
X263266Y116074D01*
X263274Y116092D01*
X263287Y116107D01*
X263326Y116203D01*
X263369Y116297D01*
X263371Y116317D01*
X263379Y116335D01*
X263397Y116502D01*
X263397Y117954D01*
X272698Y127255D01*
X316328Y127255D01*
X320295Y123288D01*
X320295Y123102D01*
X320298Y123082D01*
X320296Y123063D01*
X320318Y122961D01*
X320334Y122859D01*
X320344Y122842D01*
X320348Y122822D01*
X320401Y122733D01*
X320450Y122642D01*
X320464Y122628D01*
X320474Y122611D01*
X320553Y122544D01*
X320628Y122472D01*
X320646Y122464D01*
X320661Y122451D01*
X320757Y122412D01*
X320851Y122369D01*
X320871Y122367D01*
X320889Y122359D01*
X321056Y122341D01*
X332052Y122341D01*
X333541Y120852D01*
X333541Y117856D01*
X333544Y117836D01*
X333542Y117817D01*
X333564Y117715D01*
X333580Y117613D01*
X333590Y117596D01*
X333594Y117576D01*
X333647Y117487D01*
X333696Y117396D01*
X333710Y117382D01*
X333720Y117365D01*
X333799Y117298D01*
X333874Y117226D01*
X333892Y117218D01*
X333907Y117205D01*
X334003Y117166D01*
X334097Y117123D01*
X334117Y117121D01*
X334135Y117113D01*
X334302Y117095D01*
X339442Y117095D01*
X392051Y64486D01*
X392125Y64433D01*
X392194Y64373D01*
X392225Y64361D01*
X392251Y64342D01*
X392338Y64315D01*
X392423Y64281D01*
X392464Y64277D01*
X392486Y64270D01*
X392518Y64271D01*
X392589Y64263D01*
X429101Y64263D01*
X429191Y64277D01*
X429282Y64285D01*
X429311Y64297D01*
X429343Y64302D01*
X429424Y64345D01*
X429508Y64381D01*
X429540Y64407D01*
X429561Y64418D01*
X429583Y64441D01*
X429639Y64486D01*
X464183Y99030D01*
X464225Y99088D01*
X464274Y99140D01*
X464296Y99187D01*
X464327Y99229D01*
X464348Y99298D01*
X464378Y99363D01*
X464384Y99415D01*
X464399Y99465D01*
X464397Y99536D01*
X464405Y99607D01*
X464394Y99658D01*
X464393Y99710D01*
X464368Y99778D01*
X464353Y99848D01*
X464326Y99892D01*
X464308Y99941D01*
X464263Y99997D01*
X464226Y100059D01*
X464187Y100093D01*
X464154Y100133D01*
X464094Y100172D01*
X464040Y100219D01*
X463991Y100238D01*
X463947Y100266D01*
X463878Y100284D01*
X463811Y100311D01*
X463740Y100319D01*
X463709Y100327D01*
X463686Y100325D01*
X463645Y100329D01*
X461122Y100329D01*
X461032Y100315D01*
X460941Y100307D01*
X460912Y100295D01*
X460880Y100290D01*
X460799Y100247D01*
X460715Y100211D01*
X460683Y100185D01*
X460662Y100174D01*
X460640Y100151D01*
X460584Y100106D01*
X458750Y98272D01*
X456426Y97309D01*
X453910Y97309D01*
X451586Y98272D01*
X449808Y100050D01*
X448845Y102374D01*
X448845Y104890D01*
X449808Y107214D01*
X451586Y108992D01*
X453910Y109955D01*
X456426Y109955D01*
X458750Y108992D01*
X460584Y107158D01*
X460658Y107105D01*
X460727Y107045D01*
X460758Y107033D01*
X460784Y107014D01*
X460871Y106987D01*
X460956Y106953D01*
X460997Y106949D01*
X461019Y106942D01*
X461051Y106943D01*
X461122Y106935D01*
X516734Y106935D01*
X518892Y104777D01*
X525773Y97896D01*
X525789Y97884D01*
X525802Y97868D01*
X525884Y97816D01*
X525885Y97815D01*
X525889Y97812D01*
X525973Y97752D01*
X525992Y97746D01*
X526009Y97735D01*
X526109Y97710D01*
X526208Y97680D01*
X526228Y97680D01*
X526247Y97675D01*
X526350Y97683D01*
X526454Y97686D01*
X526473Y97693D01*
X526493Y97694D01*
X526587Y97735D01*
X526685Y97770D01*
X526701Y97783D01*
X526719Y97791D01*
X526850Y97896D01*
X527532Y98578D01*
X529856Y99541D01*
X532372Y99541D01*
X534696Y98578D01*
X536474Y96800D01*
X537437Y94476D01*
X537437Y94396D01*
X537447Y94333D01*
X537447Y94270D01*
X537467Y94213D01*
X537476Y94153D01*
X537506Y94097D01*
X537527Y94037D01*
X537563Y93989D01*
X537592Y93936D01*
X537638Y93892D01*
X537676Y93842D01*
X537726Y93808D01*
X537770Y93767D01*
X537828Y93740D01*
X537880Y93704D01*
X537938Y93688D01*
X537993Y93663D01*
X538056Y93656D01*
X538118Y93639D01*
X538178Y93643D01*
X538237Y93636D01*
X538300Y93649D01*
X538363Y93653D01*
X538419Y93675D01*
X538478Y93688D01*
X538532Y93721D01*
X538592Y93745D01*
X538661Y93798D01*
X538689Y93814D01*
X538701Y93828D01*
X538725Y93847D01*
X539466Y94557D01*
X539470Y94562D01*
X539477Y94568D01*
X540443Y95534D01*
X541809Y95505D01*
X541815Y95506D01*
X541825Y95505D01*
X583998Y95505D01*
X584018Y95508D01*
X584037Y95506D01*
X584139Y95528D01*
X584241Y95544D01*
X584258Y95554D01*
X584278Y95558D01*
X584367Y95611D01*
X584458Y95660D01*
X584472Y95674D01*
X584489Y95684D01*
X584556Y95763D01*
X584628Y95838D01*
X584636Y95856D01*
X584649Y95871D01*
X584688Y95967D01*
X584731Y96061D01*
X584733Y96081D01*
X584741Y96099D01*
X584759Y96266D01*
X584759Y107302D01*
X586248Y108791D01*
X623352Y108791D01*
X623969Y108174D01*
X624043Y108121D01*
X624113Y108061D01*
X624143Y108049D01*
X624169Y108030D01*
X624256Y108003D01*
X624341Y107969D01*
X624382Y107965D01*
X624404Y107958D01*
X624436Y107959D01*
X624508Y107951D01*
X693939Y107951D01*
X694056Y107970D01*
X694174Y107988D01*
X694178Y107990D01*
X694182Y107990D01*
X694287Y108046D01*
X694393Y108101D01*
X694396Y108104D01*
X694399Y108106D01*
X694481Y108192D01*
X694564Y108277D01*
X694566Y108281D01*
X694569Y108284D01*
X694619Y108392D01*
X694670Y108499D01*
X694670Y108503D01*
X694672Y108507D01*
X694685Y108626D01*
X694700Y108743D01*
X694699Y108748D01*
X694699Y108751D01*
X694696Y108765D01*
X694674Y108909D01*
X694659Y108966D01*
X694659Y112777D01*
X701938Y112777D01*
X701958Y112780D01*
X701977Y112778D01*
X702079Y112800D01*
X702181Y112817D01*
X702198Y112826D01*
X702218Y112830D01*
X702307Y112883D01*
X702398Y112932D01*
X702412Y112946D01*
X702429Y112956D01*
X702496Y113035D01*
X702567Y113110D01*
X702576Y113128D01*
X702589Y113143D01*
X702628Y113239D01*
X702671Y113333D01*
X702673Y113353D01*
X702681Y113371D01*
X702699Y113538D01*
X702699Y114301D01*
X703462Y114301D01*
X703482Y114304D01*
X703501Y114302D01*
X703603Y114324D01*
X703705Y114341D01*
X703722Y114350D01*
X703742Y114354D01*
X703831Y114407D01*
X703922Y114456D01*
X703936Y114470D01*
X703953Y114480D01*
X704020Y114559D01*
X704091Y114634D01*
X704100Y114652D01*
X704113Y114667D01*
X704152Y114763D01*
X704195Y114857D01*
X704197Y114877D01*
X704205Y114895D01*
X704223Y115062D01*
X704223Y121841D01*
X704564Y121841D01*
X704634Y121852D01*
X704706Y121854D01*
X704755Y121872D01*
X704807Y121880D01*
X704870Y121914D01*
X704937Y121939D01*
X704978Y121971D01*
X705024Y121996D01*
X705073Y122048D01*
X705129Y122092D01*
X705157Y122136D01*
X705193Y122174D01*
X705223Y122239D01*
X705262Y122299D01*
X705275Y122350D01*
X705297Y122397D01*
X705305Y122468D01*
X705322Y122538D01*
X705318Y122590D01*
X705324Y122641D01*
X705309Y122712D01*
X705303Y122783D01*
X705283Y122831D01*
X705272Y122882D01*
X705235Y122943D01*
X705207Y123009D01*
X705162Y123065D01*
X705146Y123093D01*
X705128Y123108D01*
X705102Y123140D01*
X703808Y124434D01*
X702845Y126758D01*
X702845Y129274D01*
X703808Y131598D01*
X705586Y133376D01*
X707910Y134339D01*
X710426Y134339D01*
X712750Y133376D01*
X713060Y133066D01*
X713134Y133013D01*
X713203Y132953D01*
X713233Y132941D01*
X713260Y132922D01*
X713347Y132895D01*
X713432Y132861D01*
X713472Y132857D01*
X713495Y132850D01*
X713527Y132851D01*
X713598Y132843D01*
X793042Y132843D01*
X793356Y132530D01*
X793429Y132477D01*
X793499Y132417D01*
X793529Y132405D01*
X793555Y132386D01*
X793642Y132359D01*
X793727Y132325D01*
X793768Y132321D01*
X793790Y132314D01*
X793823Y132315D01*
X793894Y132307D01*
X795770Y132307D01*
X798094Y131344D01*
X799872Y129566D01*
X800835Y127242D01*
X800835Y124726D01*
X799872Y122402D01*
X798094Y120624D01*
X795770Y119661D01*
X793254Y119661D01*
X790930Y120624D01*
X789152Y122402D01*
X788179Y124751D01*
X788117Y124851D01*
X788057Y124951D01*
X788053Y124955D01*
X788049Y124960D01*
X787959Y125035D01*
X787870Y125111D01*
X787865Y125113D01*
X787860Y125117D01*
X787751Y125159D01*
X787642Y125203D01*
X787635Y125204D01*
X787630Y125205D01*
X787612Y125206D01*
X787476Y125221D01*
X715363Y125221D01*
X715248Y125203D01*
X715132Y125185D01*
X715126Y125183D01*
X715120Y125182D01*
X715017Y125127D01*
X714912Y125074D01*
X714908Y125069D01*
X714903Y125066D01*
X714822Y124982D01*
X714740Y124898D01*
X714737Y124892D01*
X714733Y124888D01*
X714725Y124871D01*
X714659Y124751D01*
X714528Y124434D01*
X713234Y123140D01*
X713192Y123082D01*
X713143Y123030D01*
X713121Y122983D01*
X713090Y122941D01*
X713069Y122872D01*
X713039Y122807D01*
X713033Y122755D01*
X713018Y122705D01*
X713020Y122634D01*
X713012Y122563D01*
X713023Y122512D01*
X713024Y122460D01*
X713049Y122392D01*
X713064Y122322D01*
X713091Y122277D01*
X713109Y122229D01*
X713154Y122173D01*
X713190Y122111D01*
X713230Y122077D01*
X713263Y122037D01*
X713323Y121998D01*
X713377Y121951D01*
X713426Y121932D01*
X713469Y121904D01*
X713539Y121886D01*
X713606Y121859D01*
X713677Y121851D01*
X713708Y121843D01*
X713731Y121845D01*
X713772Y121841D01*
X726252Y121841D01*
X727741Y120352D01*
X727741Y108248D01*
X726252Y106759D01*
X723392Y106759D01*
X723372Y106756D01*
X723353Y106758D01*
X723251Y106736D01*
X723149Y106720D01*
X723132Y106710D01*
X723112Y106706D01*
X723023Y106653D01*
X722932Y106604D01*
X722918Y106590D01*
X722901Y106580D01*
X722834Y106501D01*
X722762Y106426D01*
X722754Y106408D01*
X722741Y106393D01*
X722702Y106297D01*
X722659Y106203D01*
X722657Y106183D01*
X722649Y106165D01*
X722631Y105998D01*
X722631Y103552D01*
X722634Y103532D01*
X722632Y103513D01*
X722654Y103411D01*
X722670Y103309D01*
X722680Y103292D01*
X722684Y103272D01*
X722737Y103183D01*
X722786Y103092D01*
X722800Y103078D01*
X722810Y103061D01*
X722889Y102994D01*
X722964Y102922D01*
X722982Y102914D01*
X722997Y102901D01*
X723093Y102862D01*
X723187Y102819D01*
X723207Y102817D01*
X723225Y102809D01*
X723392Y102791D01*
X726252Y102791D01*
X727741Y101302D01*
X727741Y89198D01*
X726252Y87709D01*
X713148Y87709D01*
X711642Y89214D01*
X711547Y89283D01*
X711450Y89354D01*
X711446Y89356D01*
X711443Y89358D01*
X711330Y89393D01*
X711216Y89429D01*
X711212Y89429D01*
X711208Y89430D01*
X711089Y89427D01*
X710970Y89425D01*
X710966Y89424D01*
X710962Y89424D01*
X710850Y89383D01*
X710738Y89344D01*
X710735Y89341D01*
X710731Y89340D01*
X710637Y89265D01*
X710544Y89192D01*
X710541Y89188D01*
X710539Y89186D01*
X710531Y89174D01*
X710445Y89057D01*
X710233Y88690D01*
X709760Y88217D01*
X709181Y87882D01*
X708534Y87709D01*
X704223Y87709D01*
X704223Y94488D01*
X704220Y94508D01*
X704222Y94527D01*
X704200Y94629D01*
X704183Y94731D01*
X704174Y94748D01*
X704170Y94768D01*
X704117Y94857D01*
X704068Y94948D01*
X704054Y94962D01*
X704044Y94979D01*
X703965Y95046D01*
X703890Y95117D01*
X703872Y95126D01*
X703857Y95139D01*
X703761Y95178D01*
X703667Y95221D01*
X703647Y95223D01*
X703629Y95231D01*
X703462Y95249D01*
X702699Y95249D01*
X702699Y96012D01*
X702696Y96032D01*
X702698Y96051D01*
X702676Y96153D01*
X702659Y96255D01*
X702650Y96272D01*
X702646Y96292D01*
X702593Y96381D01*
X702544Y96472D01*
X702530Y96486D01*
X702520Y96503D01*
X702441Y96570D01*
X702366Y96641D01*
X702348Y96650D01*
X702333Y96663D01*
X702237Y96702D01*
X702143Y96745D01*
X702123Y96747D01*
X702105Y96755D01*
X701938Y96773D01*
X694659Y96773D01*
X694659Y100584D01*
X694656Y100604D01*
X694658Y100623D01*
X694636Y100725D01*
X694620Y100827D01*
X694610Y100844D01*
X694606Y100864D01*
X694553Y100953D01*
X694504Y101044D01*
X694490Y101058D01*
X694480Y101075D01*
X694401Y101142D01*
X694326Y101214D01*
X694308Y101222D01*
X694293Y101235D01*
X694197Y101274D01*
X694103Y101317D01*
X694083Y101319D01*
X694065Y101327D01*
X693898Y101345D01*
X632365Y101345D01*
X632295Y101334D01*
X632223Y101332D01*
X632174Y101314D01*
X632123Y101306D01*
X632059Y101272D01*
X631992Y101247D01*
X631951Y101215D01*
X631905Y101190D01*
X631856Y101138D01*
X631800Y101094D01*
X631772Y101050D01*
X631736Y101012D01*
X631706Y100947D01*
X631667Y100887D01*
X631654Y100836D01*
X631632Y100789D01*
X631624Y100718D01*
X631607Y100648D01*
X631611Y100596D01*
X631605Y100545D01*
X631620Y100474D01*
X631626Y100403D01*
X631646Y100355D01*
X631657Y100304D01*
X631694Y100243D01*
X631722Y100177D01*
X631767Y100121D01*
X631784Y100093D01*
X631801Y100078D01*
X631827Y100046D01*
X632684Y99189D01*
X651893Y79980D01*
X651967Y79927D01*
X652036Y79867D01*
X652067Y79855D01*
X652093Y79836D01*
X652180Y79809D01*
X652265Y79775D01*
X652306Y79771D01*
X652328Y79764D01*
X652360Y79765D01*
X652431Y79757D01*
X674848Y79757D01*
X674868Y79760D01*
X674887Y79758D01*
X674989Y79780D01*
X675091Y79796D01*
X675108Y79806D01*
X675128Y79810D01*
X675217Y79863D01*
X675308Y79912D01*
X675322Y79926D01*
X675339Y79936D01*
X675406Y80015D01*
X675478Y80090D01*
X675486Y80108D01*
X675499Y80123D01*
X675538Y80219D01*
X675581Y80313D01*
X675583Y80333D01*
X675591Y80351D01*
X675609Y80518D01*
X675609Y82252D01*
X677098Y83741D01*
X690202Y83741D01*
X691708Y82236D01*
X691803Y82167D01*
X691900Y82096D01*
X691904Y82094D01*
X691907Y82092D01*
X692020Y82057D01*
X692134Y82021D01*
X692138Y82021D01*
X692142Y82020D01*
X692261Y82023D01*
X692380Y82025D01*
X692384Y82026D01*
X692388Y82026D01*
X692500Y82067D01*
X692612Y82106D01*
X692615Y82109D01*
X692619Y82110D01*
X692713Y82185D01*
X692806Y82258D01*
X692809Y82262D01*
X692811Y82264D01*
X692819Y82276D01*
X692905Y82393D01*
X693117Y82760D01*
X693590Y83233D01*
X694169Y83568D01*
X694816Y83741D01*
X699127Y83741D01*
X699127Y76962D01*
X699130Y76942D01*
X699128Y76923D01*
X699150Y76821D01*
X699167Y76719D01*
X699176Y76702D01*
X699180Y76682D01*
X699233Y76593D01*
X699282Y76502D01*
X699296Y76488D01*
X699306Y76471D01*
X699385Y76404D01*
X699460Y76333D01*
X699478Y76324D01*
X699493Y76311D01*
X699589Y76272D01*
X699683Y76229D01*
X699703Y76227D01*
X699721Y76219D01*
X699888Y76201D01*
X700651Y76201D01*
X700651Y76199D01*
X699888Y76199D01*
X699868Y76196D01*
X699849Y76198D01*
X699747Y76176D01*
X699645Y76159D01*
X699628Y76150D01*
X699608Y76146D01*
X699519Y76093D01*
X699428Y76044D01*
X699414Y76030D01*
X699397Y76020D01*
X699330Y75941D01*
X699259Y75866D01*
X699250Y75848D01*
X699237Y75833D01*
X699198Y75737D01*
X699155Y75643D01*
X699153Y75623D01*
X699145Y75605D01*
X699127Y75438D01*
X699127Y68659D01*
X694816Y68659D01*
X694169Y68832D01*
X693590Y69167D01*
X693117Y69640D01*
X692905Y70007D01*
X692829Y70099D01*
X692756Y70192D01*
X692752Y70194D01*
X692749Y70197D01*
X692648Y70261D01*
X692549Y70325D01*
X692545Y70326D01*
X692541Y70328D01*
X692425Y70356D01*
X692310Y70385D01*
X692306Y70384D01*
X692302Y70385D01*
X692183Y70375D01*
X692065Y70366D01*
X692061Y70364D01*
X692057Y70364D01*
X691947Y70315D01*
X691839Y70269D01*
X691835Y70266D01*
X691832Y70265D01*
X691821Y70255D01*
X691708Y70164D01*
X690183Y68640D01*
X690142Y68582D01*
X690092Y68530D01*
X690070Y68483D01*
X690040Y68441D01*
X690019Y68372D01*
X689989Y68307D01*
X689983Y68255D01*
X689967Y68205D01*
X689969Y68134D01*
X689961Y68063D01*
X689973Y68012D01*
X689974Y67960D01*
X689998Y67892D01*
X690014Y67822D01*
X690040Y67778D01*
X690058Y67729D01*
X690103Y67673D01*
X690140Y67611D01*
X690179Y67577D01*
X690212Y67537D01*
X690272Y67498D01*
X690327Y67451D01*
X690375Y67432D01*
X690419Y67404D01*
X690488Y67386D01*
X690555Y67359D01*
X690626Y67351D01*
X690657Y67343D01*
X690681Y67345D01*
X690722Y67341D01*
X691852Y67341D01*
X693341Y65852D01*
X693341Y63346D01*
X693345Y63322D01*
X693342Y63298D01*
X693364Y63201D01*
X693380Y63103D01*
X693392Y63082D01*
X693397Y63058D01*
X693449Y62973D01*
X693496Y62886D01*
X693513Y62869D01*
X693526Y62848D01*
X693602Y62785D01*
X693674Y62716D01*
X693696Y62706D01*
X693714Y62691D01*
X693807Y62655D01*
X693897Y62613D01*
X693921Y62610D01*
X693944Y62601D01*
X694043Y62597D01*
X694141Y62586D01*
X694165Y62591D01*
X694189Y62590D01*
X694285Y62617D01*
X694382Y62638D01*
X694403Y62650D01*
X694426Y62657D01*
X694508Y62713D01*
X694593Y62764D01*
X694609Y62782D01*
X694629Y62796D01*
X694688Y62875D01*
X694753Y62951D01*
X694762Y62973D01*
X694776Y62993D01*
X694826Y63119D01*
X695167Y63710D01*
X695640Y64183D01*
X696219Y64518D01*
X696866Y64691D01*
X701177Y64691D01*
X701177Y57912D01*
X701180Y57892D01*
X701178Y57873D01*
X701200Y57771D01*
X701217Y57669D01*
X701226Y57652D01*
X701230Y57632D01*
X701283Y57543D01*
X701332Y57452D01*
X701346Y57438D01*
X701356Y57421D01*
X701435Y57354D01*
X701510Y57283D01*
X701528Y57274D01*
X701543Y57261D01*
X701639Y57222D01*
X701733Y57179D01*
X701753Y57177D01*
X701771Y57169D01*
X701938Y57151D01*
X703462Y57151D01*
X703482Y57154D01*
X703501Y57152D01*
X703603Y57174D01*
X703705Y57191D01*
X703722Y57200D01*
X703742Y57204D01*
X703831Y57257D01*
X703922Y57306D01*
X703936Y57320D01*
X703953Y57330D01*
X704020Y57409D01*
X704091Y57484D01*
X704100Y57502D01*
X704113Y57517D01*
X704152Y57613D01*
X704195Y57707D01*
X704197Y57727D01*
X704205Y57745D01*
X704223Y57912D01*
X704223Y64691D01*
X708534Y64691D01*
X709181Y64518D01*
X709426Y64376D01*
X709448Y64367D01*
X709468Y64353D01*
X709563Y64324D01*
X709656Y64289D01*
X709680Y64288D01*
X709703Y64281D01*
X709802Y64284D01*
X709902Y64280D01*
X709925Y64287D01*
X709949Y64287D01*
X710042Y64322D01*
X710137Y64350D01*
X710157Y64364D01*
X710180Y64372D01*
X710258Y64434D01*
X710339Y64491D01*
X710353Y64511D01*
X710372Y64526D01*
X710426Y64609D01*
X710485Y64689D01*
X710492Y64712D01*
X710505Y64733D01*
X710529Y64829D01*
X710559Y64924D01*
X710559Y64948D01*
X710565Y64971D01*
X710557Y65070D01*
X710556Y65170D01*
X710548Y65192D01*
X710546Y65216D01*
X710507Y65308D01*
X710474Y65401D01*
X710459Y65420D01*
X710450Y65443D01*
X710345Y65574D01*
X708888Y67030D01*
X708279Y68501D01*
X708242Y68561D01*
X708214Y68624D01*
X708178Y68664D01*
X708149Y68710D01*
X708095Y68755D01*
X708048Y68806D01*
X708001Y68833D01*
X707959Y68867D01*
X707894Y68892D01*
X707834Y68926D01*
X707780Y68936D01*
X707730Y68955D01*
X707660Y68958D01*
X707592Y68971D01*
X707538Y68964D01*
X707484Y68966D01*
X707417Y68946D01*
X707348Y68937D01*
X707279Y68906D01*
X707248Y68897D01*
X707230Y68885D01*
X707195Y68869D01*
X707131Y68832D01*
X706484Y68659D01*
X702173Y68659D01*
X702173Y74677D01*
X709056Y74677D01*
X709146Y74692D01*
X709237Y74699D01*
X709267Y74711D01*
X709299Y74717D01*
X709379Y74759D01*
X709463Y74795D01*
X709495Y74821D01*
X709516Y74832D01*
X709538Y74855D01*
X709594Y74900D01*
X710666Y75972D01*
X712990Y76935D01*
X715506Y76935D01*
X717830Y75972D01*
X719608Y74194D01*
X720571Y71870D01*
X720571Y69994D01*
X720585Y69904D01*
X720593Y69813D01*
X720605Y69783D01*
X720610Y69751D01*
X720653Y69670D01*
X720689Y69586D01*
X720715Y69554D01*
X720726Y69534D01*
X720749Y69511D01*
X720794Y69456D01*
X723108Y67141D01*
X723124Y67130D01*
X723136Y67114D01*
X723224Y67058D01*
X723307Y66998D01*
X723326Y66992D01*
X723343Y66981D01*
X723444Y66956D01*
X723543Y66926D01*
X723562Y66926D01*
X723582Y66921D01*
X723685Y66929D01*
X723788Y66932D01*
X723807Y66939D01*
X723827Y66940D01*
X723922Y66981D01*
X724019Y67016D01*
X724035Y67029D01*
X724053Y67037D01*
X724184Y67141D01*
X729038Y71995D01*
X729091Y72069D01*
X729151Y72139D01*
X729163Y72169D01*
X729182Y72195D01*
X729209Y72282D01*
X729243Y72367D01*
X729247Y72408D01*
X729254Y72430D01*
X729253Y72462D01*
X729261Y72534D01*
X729261Y74410D01*
X730224Y76734D01*
X732002Y78512D01*
X734326Y79475D01*
X736842Y79475D01*
X739166Y78512D01*
X740944Y76734D01*
X741907Y74410D01*
X741907Y71894D01*
X740944Y69570D01*
X739166Y67792D01*
X736842Y66829D01*
X734966Y66829D01*
X734876Y66815D01*
X734785Y66807D01*
X734755Y66795D01*
X734723Y66790D01*
X734642Y66747D01*
X734558Y66711D01*
X734526Y66685D01*
X734506Y66674D01*
X734483Y66651D01*
X734427Y66606D01*
X727964Y60142D01*
X727916Y60076D01*
X727910Y60070D01*
X727908Y60066D01*
X727851Y59999D01*
X727839Y59969D01*
X727820Y59943D01*
X727793Y59856D01*
X727759Y59771D01*
X727755Y59730D01*
X727748Y59708D01*
X727749Y59675D01*
X727741Y59604D01*
X727741Y51098D01*
X726252Y49609D01*
X723900Y49609D01*
X723880Y49606D01*
X723861Y49608D01*
X723759Y49586D01*
X723657Y49570D01*
X723640Y49560D01*
X723620Y49556D01*
X723531Y49503D01*
X723440Y49454D01*
X723426Y49440D01*
X723409Y49430D01*
X723342Y49351D01*
X723270Y49276D01*
X723262Y49258D01*
X723249Y49243D01*
X723210Y49147D01*
X723167Y49053D01*
X723165Y49033D01*
X723157Y49015D01*
X723139Y48848D01*
X723139Y46402D01*
X723142Y46382D01*
X723140Y46363D01*
X723162Y46261D01*
X723178Y46159D01*
X723188Y46142D01*
X723192Y46122D01*
X723245Y46033D01*
X723294Y45942D01*
X723308Y45928D01*
X723318Y45911D01*
X723397Y45844D01*
X723472Y45772D01*
X723490Y45764D01*
X723505Y45751D01*
X723601Y45712D01*
X723695Y45669D01*
X723715Y45667D01*
X723733Y45659D01*
X723900Y45641D01*
X726252Y45641D01*
X727741Y44152D01*
X727741Y32048D01*
X726252Y30559D01*
X713148Y30559D01*
X711642Y32064D01*
X711547Y32133D01*
X711450Y32204D01*
X711446Y32206D01*
X711443Y32208D01*
X711330Y32243D01*
X711216Y32279D01*
X711212Y32279D01*
X711208Y32280D01*
X711089Y32277D01*
X710970Y32275D01*
X710966Y32274D01*
X710962Y32274D01*
X710850Y32233D01*
X710738Y32194D01*
X710735Y32191D01*
X710731Y32190D01*
X710637Y32115D01*
X710544Y32042D01*
X710541Y32038D01*
X710539Y32036D01*
X710531Y32024D01*
X710445Y31907D01*
X710233Y31540D01*
X710012Y31319D01*
X710001Y31303D01*
X709985Y31290D01*
X709929Y31203D01*
X709869Y31119D01*
X709863Y31100D01*
X709852Y31084D01*
X709827Y30983D01*
X709796Y30884D01*
X709797Y30864D01*
X709792Y30845D01*
X709800Y30742D01*
X709803Y30638D01*
X709810Y30620D01*
X709811Y30600D01*
X709852Y30505D01*
X709887Y30407D01*
X709900Y30392D01*
X709907Y30373D01*
X710012Y30242D01*
X710662Y29593D01*
X713441Y26814D01*
X713515Y26761D01*
X713584Y26701D01*
X713615Y26689D01*
X713641Y26670D01*
X713728Y26643D01*
X713813Y26609D01*
X713854Y26605D01*
X713876Y26598D01*
X713908Y26599D01*
X713979Y26591D01*
X726252Y26591D01*
X727741Y25102D01*
X727741Y12998D01*
X726203Y11460D01*
X726162Y11402D01*
X726112Y11350D01*
X726090Y11303D01*
X726060Y11261D01*
X726039Y11192D01*
X726009Y11127D01*
X726003Y11075D01*
X725987Y11025D01*
X725989Y10954D01*
X725981Y10883D01*
X725993Y10832D01*
X725994Y10780D01*
X726018Y10712D01*
X726034Y10642D01*
X726060Y10597D01*
X726078Y10549D01*
X726123Y10493D01*
X726160Y10431D01*
X726199Y10397D01*
X726232Y10357D01*
X726292Y10318D01*
X726347Y10271D01*
X726395Y10252D01*
X726439Y10224D01*
X726508Y10206D01*
X726575Y10179D01*
X726646Y10171D01*
X726677Y10163D01*
X726701Y10165D01*
X726742Y10161D01*
X884958Y10161D01*
X885029Y10172D01*
X885100Y10174D01*
X885149Y10192D01*
X885201Y10200D01*
X885264Y10234D01*
X885331Y10259D01*
X885372Y10291D01*
X885418Y10316D01*
X885467Y10368D01*
X885523Y10412D01*
X885551Y10456D01*
X885587Y10494D01*
X885617Y10559D01*
X885656Y10619D01*
X885669Y10670D01*
X885691Y10717D01*
X885699Y10788D01*
X885716Y10858D01*
X885712Y10910D01*
X885718Y10961D01*
X885703Y11032D01*
X885697Y11103D01*
X885677Y11151D01*
X885666Y11202D01*
X885629Y11263D01*
X885601Y11329D01*
X885556Y11385D01*
X885540Y11413D01*
X885522Y11428D01*
X885496Y11460D01*
X876475Y20481D01*
X876475Y26671D01*
X894334Y26671D01*
X894354Y26674D01*
X894373Y26672D01*
X894475Y26694D01*
X894577Y26711D01*
X894594Y26720D01*
X894614Y26724D01*
X894703Y26777D01*
X894794Y26826D01*
X894808Y26840D01*
X894825Y26850D01*
X894892Y26929D01*
X894963Y27004D01*
X894972Y27022D01*
X894985Y27037D01*
X895023Y27133D01*
X895067Y27227D01*
X895069Y27247D01*
X895077Y27265D01*
X895095Y27432D01*
X895095Y28195D01*
X895097Y28195D01*
X895097Y27432D01*
X895100Y27412D01*
X895098Y27393D01*
X895120Y27291D01*
X895137Y27189D01*
X895146Y27172D01*
X895150Y27152D01*
X895203Y27063D01*
X895252Y26972D01*
X895266Y26958D01*
X895276Y26941D01*
X895355Y26874D01*
X895430Y26803D01*
X895448Y26794D01*
X895463Y26781D01*
X895559Y26742D01*
X895653Y26699D01*
X895673Y26697D01*
X895691Y26689D01*
X895858Y26671D01*
X907336Y26671D01*
X907426Y26686D01*
X907517Y26693D01*
X907547Y26705D01*
X907579Y26711D01*
X907659Y26753D01*
X907743Y26789D01*
X907775Y26815D01*
X907796Y26826D01*
X907818Y26849D01*
X907874Y26894D01*
X908644Y27664D01*
X910066Y28253D01*
X910149Y28304D01*
X910235Y28350D01*
X910253Y28368D01*
X910275Y28382D01*
X910337Y28457D01*
X910404Y28528D01*
X910415Y28552D01*
X910432Y28572D01*
X910467Y28663D01*
X910508Y28751D01*
X910511Y28777D01*
X910520Y28801D01*
X910524Y28899D01*
X910535Y28995D01*
X910529Y29021D01*
X910530Y29047D01*
X910503Y29141D01*
X910483Y29236D01*
X910469Y29258D01*
X910462Y29283D01*
X910406Y29363D01*
X910356Y29447D01*
X910337Y29464D01*
X910322Y29485D01*
X910243Y29544D01*
X910170Y29607D01*
X910145Y29617D01*
X910124Y29632D01*
X910032Y29662D01*
X909941Y29699D01*
X909909Y29702D01*
X909890Y29708D01*
X909857Y29708D01*
X909775Y29717D01*
X896619Y29717D01*
X896619Y46815D01*
X902809Y46815D01*
X913717Y35907D01*
X913717Y29972D01*
X913720Y29952D01*
X913718Y29933D01*
X913740Y29831D01*
X913756Y29729D01*
X913766Y29712D01*
X913770Y29692D01*
X913823Y29603D01*
X913872Y29512D01*
X913886Y29498D01*
X913896Y29481D01*
X913975Y29414D01*
X914050Y29342D01*
X914068Y29334D01*
X914083Y29321D01*
X914179Y29282D01*
X914273Y29239D01*
X914293Y29237D01*
X914311Y29229D01*
X914478Y29211D01*
X979478Y29211D01*
X979498Y29214D01*
X979517Y29212D01*
X979619Y29234D01*
X979721Y29250D01*
X979738Y29260D01*
X979758Y29264D01*
X979847Y29317D01*
X979938Y29366D01*
X979952Y29380D01*
X979969Y29390D01*
X980036Y29469D01*
X980108Y29544D01*
X980116Y29562D01*
X980129Y29577D01*
X980168Y29673D01*
X980211Y29767D01*
X980213Y29787D01*
X980221Y29805D01*
X980239Y29972D01*
X980239Y119128D01*
X980236Y119148D01*
X980238Y119167D01*
X980216Y119269D01*
X980200Y119371D01*
X980190Y119388D01*
X980186Y119408D01*
X980133Y119497D01*
X980084Y119588D01*
X980070Y119602D01*
X980060Y119619D01*
X979981Y119686D01*
X979906Y119758D01*
X979888Y119766D01*
X979873Y119779D01*
X979777Y119818D01*
X979683Y119861D01*
X979663Y119863D01*
X979645Y119871D01*
X979478Y119889D01*
X912379Y119889D01*
X908644Y121436D01*
X905786Y124294D01*
X904239Y128029D01*
X904239Y137668D01*
X904236Y137688D01*
X904238Y137707D01*
X904216Y137809D01*
X904200Y137911D01*
X904190Y137928D01*
X904186Y137948D01*
X904133Y138037D01*
X904084Y138128D01*
X904070Y138142D01*
X904060Y138159D01*
X903981Y138226D01*
X903906Y138298D01*
X903888Y138306D01*
X903873Y138319D01*
X903777Y138358D01*
X903683Y138401D01*
X903663Y138403D01*
X903645Y138411D01*
X903478Y138429D01*
X868262Y138429D01*
X868191Y138418D01*
X868120Y138416D01*
X868071Y138398D01*
X868019Y138390D01*
X867956Y138356D01*
X867889Y138331D01*
X867848Y138299D01*
X867802Y138274D01*
X867753Y138222D01*
X867697Y138178D01*
X867669Y138134D01*
X867633Y138096D01*
X867602Y138031D01*
X867564Y137971D01*
X867551Y137920D01*
X867529Y137873D01*
X867521Y137802D01*
X867504Y137732D01*
X867508Y137680D01*
X867502Y137629D01*
X867517Y137558D01*
X867523Y137487D01*
X867543Y137439D01*
X867554Y137388D01*
X867591Y137327D01*
X867619Y137261D01*
X867664Y137205D01*
X867680Y137177D01*
X867698Y137162D01*
X867724Y137130D01*
X868338Y136516D01*
X869189Y134462D01*
X869189Y98806D01*
X869192Y98786D01*
X869190Y98767D01*
X869212Y98665D01*
X869228Y98563D01*
X869238Y98546D01*
X869242Y98526D01*
X869295Y98437D01*
X869344Y98346D01*
X869358Y98332D01*
X869368Y98315D01*
X869447Y98248D01*
X869522Y98176D01*
X869540Y98168D01*
X869555Y98155D01*
X869651Y98116D01*
X869745Y98073D01*
X869765Y98071D01*
X869783Y98063D01*
X869950Y98045D01*
X874321Y98045D01*
X886969Y85397D01*
X886969Y67511D01*
X874321Y54863D01*
X856435Y54863D01*
X843787Y67511D01*
X843787Y85397D01*
X856435Y98045D01*
X857250Y98045D01*
X857270Y98048D01*
X857289Y98046D01*
X857391Y98068D01*
X857493Y98084D01*
X857510Y98094D01*
X857530Y98098D01*
X857619Y98151D01*
X857710Y98200D01*
X857724Y98214D01*
X857741Y98224D01*
X857808Y98303D01*
X857880Y98378D01*
X857888Y98396D01*
X857901Y98411D01*
X857940Y98507D01*
X857983Y98601D01*
X857985Y98621D01*
X857993Y98639D01*
X858011Y98806D01*
X858011Y130720D01*
X857997Y130810D01*
X857989Y130901D01*
X857977Y130931D01*
X857972Y130962D01*
X857929Y131043D01*
X857893Y131127D01*
X857867Y131159D01*
X857856Y131180D01*
X857833Y131202D01*
X857788Y131258D01*
X850840Y138206D01*
X850766Y138259D01*
X850697Y138319D01*
X850667Y138331D01*
X850640Y138350D01*
X850553Y138377D01*
X850468Y138411D01*
X850428Y138415D01*
X850405Y138422D01*
X850373Y138421D01*
X850302Y138429D01*
X598202Y138429D01*
X598131Y138418D01*
X598059Y138416D01*
X598010Y138398D01*
X597959Y138390D01*
X597896Y138356D01*
X597828Y138331D01*
X597788Y138299D01*
X597742Y138274D01*
X597692Y138222D01*
X597636Y138178D01*
X597608Y138134D01*
X597572Y138096D01*
X597542Y138031D01*
X597503Y137971D01*
X597490Y137920D01*
X597469Y137873D01*
X597461Y137802D01*
X597443Y137732D01*
X597447Y137680D01*
X597441Y137629D01*
X597457Y137558D01*
X597462Y137487D01*
X597483Y137439D01*
X597494Y137388D01*
X597531Y137327D01*
X597559Y137261D01*
X597603Y137205D01*
X597620Y137177D01*
X597638Y137162D01*
X597663Y137130D01*
X600886Y133907D01*
X602743Y129425D01*
X602743Y124575D01*
X600886Y120093D01*
X597457Y116664D01*
X592975Y114807D01*
X588125Y114807D01*
X583643Y116664D01*
X580214Y120093D01*
X578357Y124575D01*
X578357Y129425D01*
X580214Y133907D01*
X583437Y137130D01*
X583478Y137188D01*
X583528Y137240D01*
X583550Y137287D01*
X583580Y137329D01*
X583601Y137398D01*
X583631Y137463D01*
X583637Y137515D01*
X583653Y137565D01*
X583651Y137636D01*
X583659Y137707D01*
X583647Y137758D01*
X583646Y137810D01*
X583622Y137878D01*
X583606Y137948D01*
X583580Y137993D01*
X583562Y138041D01*
X583517Y138097D01*
X583480Y138159D01*
X583441Y138193D01*
X583408Y138233D01*
X583348Y138272D01*
X583293Y138319D01*
X583245Y138338D01*
X583201Y138366D01*
X583132Y138384D01*
X583065Y138411D01*
X582994Y138419D01*
X582963Y138427D01*
X582939Y138425D01*
X582898Y138429D01*
X451855Y138429D01*
X451847Y138428D01*
X451840Y138429D01*
X451726Y138408D01*
X451613Y138390D01*
X451606Y138386D01*
X451598Y138384D01*
X451496Y138328D01*
X451395Y138274D01*
X451390Y138269D01*
X451383Y138265D01*
X451305Y138179D01*
X451226Y138096D01*
X451222Y138089D01*
X451217Y138083D01*
X451171Y137977D01*
X451122Y137873D01*
X451121Y137865D01*
X451118Y137858D01*
X451108Y137743D01*
X451095Y137629D01*
X451097Y137621D01*
X451096Y137613D01*
X451123Y137501D01*
X451147Y137388D01*
X451151Y137381D01*
X451153Y137374D01*
X451214Y137276D01*
X451274Y137177D01*
X451280Y137172D01*
X451284Y137165D01*
X451408Y137052D01*
X452443Y136300D01*
X453800Y134943D01*
X454928Y133390D01*
X455799Y131680D01*
X456393Y129855D01*
X456603Y128523D01*
X446023Y128523D01*
X446023Y137668D01*
X446020Y137688D01*
X446022Y137707D01*
X446000Y137809D01*
X445983Y137911D01*
X445974Y137928D01*
X445970Y137948D01*
X445917Y138037D01*
X445868Y138128D01*
X445854Y138142D01*
X445844Y138159D01*
X445765Y138226D01*
X445690Y138298D01*
X445672Y138306D01*
X445657Y138319D01*
X445561Y138358D01*
X445467Y138401D01*
X445447Y138403D01*
X445429Y138411D01*
X445262Y138429D01*
X443738Y138429D01*
X443718Y138426D01*
X443699Y138428D01*
X443597Y138406D01*
X443495Y138390D01*
X443478Y138380D01*
X443458Y138376D01*
X443369Y138323D01*
X443278Y138274D01*
X443264Y138260D01*
X443247Y138250D01*
X443180Y138171D01*
X443109Y138096D01*
X443100Y138078D01*
X443087Y138063D01*
X443048Y137967D01*
X443005Y137873D01*
X443003Y137853D01*
X442995Y137835D01*
X442977Y137668D01*
X442977Y127762D01*
X442980Y127742D01*
X442978Y127723D01*
X443000Y127621D01*
X443017Y127519D01*
X443026Y127502D01*
X443030Y127482D01*
X443083Y127393D01*
X443132Y127302D01*
X443146Y127288D01*
X443156Y127271D01*
X443235Y127204D01*
X443310Y127133D01*
X443328Y127124D01*
X443343Y127111D01*
X443439Y127073D01*
X443533Y127029D01*
X443553Y127027D01*
X443571Y127019D01*
X443738Y127001D01*
X444501Y127001D01*
X444501Y126999D01*
X443738Y126999D01*
X443718Y126996D01*
X443699Y126998D01*
X443597Y126976D01*
X443495Y126959D01*
X443478Y126950D01*
X443458Y126946D01*
X443369Y126893D01*
X443278Y126844D01*
X443264Y126830D01*
X443247Y126820D01*
X443180Y126741D01*
X443109Y126666D01*
X443100Y126648D01*
X443087Y126633D01*
X443048Y126537D01*
X443005Y126443D01*
X443003Y126423D01*
X442995Y126405D01*
X442977Y126238D01*
X442977Y114897D01*
X441645Y115107D01*
X439820Y115701D01*
X438110Y116572D01*
X436557Y117700D01*
X435200Y119057D01*
X434072Y120610D01*
X433201Y122320D01*
X432589Y124202D01*
X432571Y124236D01*
X432562Y124274D01*
X432527Y124327D01*
X432501Y124385D01*
X432486Y124401D01*
X432476Y124420D01*
X432449Y124447D01*
X432427Y124480D01*
X432378Y124519D01*
X432335Y124566D01*
X432315Y124577D01*
X432300Y124592D01*
X432266Y124608D01*
X432234Y124633D01*
X432175Y124654D01*
X432119Y124684D01*
X432096Y124689D01*
X432078Y124698D01*
X432041Y124702D01*
X432003Y124716D01*
X431940Y124717D01*
X431877Y124728D01*
X431854Y124725D01*
X431833Y124727D01*
X431797Y124720D01*
X431757Y124720D01*
X431697Y124701D01*
X431634Y124692D01*
X431613Y124682D01*
X431593Y124677D01*
X431560Y124659D01*
X431522Y124647D01*
X431471Y124609D01*
X431415Y124581D01*
X431398Y124564D01*
X431380Y124553D01*
X431355Y124525D01*
X431323Y124502D01*
X431287Y124450D01*
X431243Y124405D01*
X431229Y124380D01*
X431218Y124368D01*
X431206Y124340D01*
X431200Y124328D01*
X431181Y124301D01*
X431176Y124284D01*
X431162Y124258D01*
X429436Y120093D01*
X426007Y116664D01*
X425921Y116628D01*
X425821Y116566D01*
X425721Y116506D01*
X425717Y116502D01*
X425712Y116498D01*
X425637Y116409D01*
X425561Y116319D01*
X425559Y116314D01*
X425555Y116309D01*
X425513Y116201D01*
X425469Y116091D01*
X425468Y116084D01*
X425467Y116079D01*
X425466Y116061D01*
X425451Y115925D01*
X425451Y109586D01*
X425465Y109496D01*
X425473Y109405D01*
X425485Y109376D01*
X425490Y109344D01*
X425533Y109263D01*
X425569Y109179D01*
X425595Y109147D01*
X425606Y109126D01*
X425629Y109104D01*
X425674Y109048D01*
X427508Y107214D01*
X428471Y104890D01*
X428471Y102374D01*
X427508Y100050D01*
X425730Y98272D01*
X423406Y97309D01*
X420890Y97309D01*
X418566Y98272D01*
X416788Y100050D01*
X415825Y102374D01*
X415825Y104890D01*
X416788Y107214D01*
X418622Y109048D01*
X418675Y109122D01*
X418735Y109191D01*
X418747Y109222D01*
X418766Y109248D01*
X418793Y109335D01*
X418827Y109420D01*
X418831Y109461D01*
X418838Y109483D01*
X418837Y109515D01*
X418845Y109586D01*
X418845Y114046D01*
X418842Y114066D01*
X418844Y114085D01*
X418822Y114187D01*
X418806Y114289D01*
X418796Y114306D01*
X418792Y114326D01*
X418739Y114415D01*
X418690Y114506D01*
X418676Y114520D01*
X418666Y114537D01*
X418587Y114604D01*
X418512Y114676D01*
X418494Y114684D01*
X418479Y114697D01*
X418383Y114736D01*
X418289Y114779D01*
X418269Y114781D01*
X418251Y114789D01*
X418084Y114807D01*
X416675Y114807D01*
X412193Y116664D01*
X408764Y120093D01*
X407103Y124101D01*
X407065Y124162D01*
X407036Y124228D01*
X407001Y124266D01*
X406974Y124311D01*
X406918Y124356D01*
X406870Y124409D01*
X406824Y124434D01*
X406784Y124467D01*
X406717Y124493D01*
X406654Y124528D01*
X406603Y124537D01*
X406555Y124556D01*
X406483Y124559D01*
X406412Y124571D01*
X406361Y124564D01*
X406309Y124566D01*
X406240Y124546D01*
X406169Y124536D01*
X406123Y124512D01*
X406073Y124497D01*
X406014Y124457D01*
X405950Y124424D01*
X405913Y124387D01*
X405871Y124357D01*
X405828Y124300D01*
X405778Y124248D01*
X405743Y124186D01*
X405724Y124160D01*
X405717Y124138D01*
X405697Y124101D01*
X404446Y121082D01*
X404419Y120968D01*
X404391Y120854D01*
X404391Y120848D01*
X404390Y120842D01*
X404401Y120725D01*
X404410Y120609D01*
X404412Y120603D01*
X404413Y120597D01*
X404461Y120490D01*
X404506Y120383D01*
X404511Y120377D01*
X404513Y120372D01*
X404525Y120359D01*
X404611Y120252D01*
X413767Y111096D01*
X413767Y97394D01*
X413782Y97304D01*
X413789Y97213D01*
X413801Y97184D01*
X413806Y97152D01*
X413849Y97071D01*
X413885Y96987D01*
X413911Y96955D01*
X413922Y96934D01*
X413945Y96912D01*
X413990Y96856D01*
X415824Y95022D01*
X416787Y92698D01*
X416787Y90182D01*
X415824Y87858D01*
X414046Y86080D01*
X411722Y85117D01*
X409206Y85117D01*
X406882Y86080D01*
X405104Y87858D01*
X404141Y90182D01*
X404141Y90594D01*
X404130Y90664D01*
X404128Y90736D01*
X404110Y90785D01*
X404102Y90837D01*
X404068Y90900D01*
X404043Y90967D01*
X404011Y91008D01*
X403986Y91054D01*
X403934Y91103D01*
X403890Y91159D01*
X403846Y91187D01*
X403808Y91223D01*
X403743Y91253D01*
X403683Y91292D01*
X403632Y91305D01*
X403585Y91327D01*
X403514Y91335D01*
X403444Y91352D01*
X403392Y91348D01*
X403341Y91354D01*
X403270Y91339D01*
X403199Y91333D01*
X403151Y91313D01*
X403100Y91302D01*
X403039Y91265D01*
X402973Y91237D01*
X402917Y91192D01*
X402889Y91176D01*
X402874Y91158D01*
X402842Y91132D01*
X401854Y90144D01*
X399530Y89181D01*
X397014Y89181D01*
X394690Y90144D01*
X392912Y91922D01*
X391949Y94246D01*
X391949Y96841D01*
X391935Y96931D01*
X391927Y97022D01*
X391915Y97051D01*
X391910Y97083D01*
X391867Y97164D01*
X391831Y97248D01*
X391805Y97280D01*
X391794Y97301D01*
X391771Y97323D01*
X391726Y97379D01*
X373611Y115494D01*
X373517Y115562D01*
X373423Y115632D01*
X373417Y115634D01*
X373411Y115638D01*
X373301Y115672D01*
X373189Y115708D01*
X373182Y115708D01*
X373176Y115710D01*
X373060Y115707D01*
X372943Y115706D01*
X372936Y115704D01*
X372931Y115704D01*
X372913Y115697D01*
X372782Y115659D01*
X370725Y114807D01*
X365875Y114807D01*
X361393Y116664D01*
X357964Y120093D01*
X356107Y124575D01*
X356107Y129425D01*
X357964Y133907D01*
X361187Y137130D01*
X361228Y137188D01*
X361278Y137240D01*
X361300Y137287D01*
X361330Y137329D01*
X361351Y137398D01*
X361381Y137463D01*
X361387Y137515D01*
X361403Y137565D01*
X361401Y137636D01*
X361409Y137707D01*
X361397Y137758D01*
X361396Y137810D01*
X361372Y137878D01*
X361356Y137948D01*
X361330Y137993D01*
X361312Y138041D01*
X361267Y138097D01*
X361230Y138159D01*
X361191Y138193D01*
X361158Y138233D01*
X361098Y138272D01*
X361043Y138319D01*
X360995Y138338D01*
X360951Y138366D01*
X360882Y138384D01*
X360815Y138411D01*
X360744Y138419D01*
X360713Y138427D01*
X360689Y138425D01*
X360648Y138429D01*
X140298Y138429D01*
X140208Y138415D01*
X140117Y138407D01*
X140087Y138395D01*
X140055Y138390D01*
X139975Y138347D01*
X139891Y138311D01*
X139859Y138285D01*
X139838Y138274D01*
X139816Y138251D01*
X139760Y138206D01*
X139007Y137453D01*
X138939Y137358D01*
X138869Y137264D01*
X138867Y137258D01*
X138863Y137253D01*
X138829Y137142D01*
X138792Y137030D01*
X138792Y137024D01*
X138791Y137018D01*
X138794Y136901D01*
X138795Y136784D01*
X138797Y136777D01*
X138797Y136772D01*
X138803Y136755D01*
X138841Y136623D01*
X139193Y135775D01*
X139193Y130925D01*
X137336Y126443D01*
X133907Y123014D01*
X129425Y121157D01*
X124575Y121157D01*
X120093Y123014D01*
X116664Y126443D01*
X115003Y130451D01*
X114965Y130512D01*
X114936Y130578D01*
X114901Y130616D01*
X114874Y130660D01*
X114819Y130706D01*
X114770Y130759D01*
X114724Y130784D01*
X114684Y130817D01*
X114617Y130843D01*
X114554Y130878D01*
X114503Y130887D01*
X114455Y130905D01*
X114383Y130909D01*
X114312Y130921D01*
X114261Y130914D01*
X114209Y130916D01*
X114140Y130896D01*
X114069Y130885D01*
X114023Y130862D01*
X113973Y130847D01*
X113914Y130807D01*
X113850Y130774D01*
X113813Y130737D01*
X113771Y130707D01*
X113728Y130650D01*
X113678Y130598D01*
X113643Y130536D01*
X113624Y130510D01*
X113617Y130487D01*
X113597Y130451D01*
X111936Y126443D01*
X108507Y123014D01*
X104025Y121157D01*
X99175Y121157D01*
X94693Y123014D01*
X91264Y126443D01*
X89407Y130925D01*
X89407Y135775D01*
X90071Y137377D01*
X90081Y137421D01*
X90100Y137463D01*
X90109Y137540D01*
X90127Y137616D01*
X90122Y137662D01*
X90128Y137707D01*
X90111Y137784D01*
X90104Y137861D01*
X90085Y137903D01*
X90075Y137948D01*
X90035Y138015D01*
X90004Y138086D01*
X89973Y138120D01*
X89949Y138159D01*
X89890Y138210D01*
X89837Y138267D01*
X89797Y138289D01*
X89762Y138319D01*
X89690Y138348D01*
X89622Y138385D01*
X89577Y138394D01*
X89534Y138411D01*
X89398Y138426D01*
X89380Y138429D01*
X89375Y138428D01*
X89367Y138429D01*
X61722Y138429D01*
X61702Y138426D01*
X61683Y138428D01*
X61581Y138406D01*
X61479Y138390D01*
X61462Y138380D01*
X61442Y138376D01*
X61353Y138323D01*
X61262Y138274D01*
X61248Y138260D01*
X61231Y138250D01*
X61164Y138171D01*
X61092Y138096D01*
X61084Y138078D01*
X61071Y138063D01*
X61032Y137967D01*
X60989Y137873D01*
X60987Y137853D01*
X60979Y137835D01*
X60961Y137668D01*
X60961Y134379D01*
X59414Y130644D01*
X56556Y127786D01*
X52821Y126239D01*
X10922Y126239D01*
X10902Y126236D01*
X10883Y126238D01*
X10781Y126216D01*
X10679Y126200D01*
X10662Y126190D01*
X10642Y126186D01*
X10553Y126133D01*
X10462Y126084D01*
X10448Y126070D01*
X10431Y126060D01*
X10364Y125981D01*
X10292Y125906D01*
X10284Y125888D01*
X10271Y125873D01*
X10232Y125777D01*
X10189Y125683D01*
X10187Y125663D01*
X10179Y125645D01*
X10161Y125478D01*
X10161Y23622D01*
X10164Y23602D01*
X10162Y23583D01*
X10184Y23481D01*
X10200Y23379D01*
X10210Y23362D01*
X10214Y23342D01*
X10267Y23253D01*
X10316Y23162D01*
X10330Y23148D01*
X10340Y23131D01*
X10419Y23064D01*
X10494Y22992D01*
X10512Y22984D01*
X10527Y22971D01*
X10623Y22932D01*
X10717Y22889D01*
X10737Y22887D01*
X10755Y22879D01*
X10922Y22861D01*
X52821Y22861D01*
X56556Y21314D01*
X59414Y18456D01*
X60961Y14721D01*
X60961Y10922D01*
X60964Y10902D01*
X60962Y10883D01*
X60984Y10781D01*
X61000Y10679D01*
X61010Y10662D01*
X61014Y10642D01*
X61067Y10553D01*
X61116Y10462D01*
X61130Y10448D01*
X61140Y10431D01*
X61219Y10364D01*
X61294Y10292D01*
X61312Y10284D01*
X61327Y10271D01*
X61423Y10232D01*
X61517Y10189D01*
X61537Y10187D01*
X61555Y10179D01*
X61722Y10161D01*
X88766Y10161D01*
X88845Y10174D01*
G37*
%LPC*%
G36*
X46171Y39769D02*
X46171Y39769D01*
X37228Y42165D01*
X29211Y46794D01*
X22664Y53341D01*
X18035Y61358D01*
X15639Y70301D01*
X15639Y79559D01*
X18035Y88502D01*
X22664Y96519D01*
X29211Y103066D01*
X37228Y107695D01*
X46171Y110091D01*
X55429Y110091D01*
X64372Y107695D01*
X72389Y103066D01*
X78936Y96519D01*
X83565Y88502D01*
X85961Y79559D01*
X85961Y70301D01*
X83565Y61358D01*
X78936Y53341D01*
X72389Y46794D01*
X64372Y42165D01*
X55429Y39769D01*
X46171Y39769D01*
G37*
%LPD*%
G36*
X533166Y10164D02*
X533166Y10164D01*
X533185Y10162D01*
X533287Y10184D01*
X533389Y10200D01*
X533406Y10210D01*
X533426Y10214D01*
X533515Y10267D01*
X533606Y10316D01*
X533620Y10330D01*
X533637Y10340D01*
X533704Y10419D01*
X533776Y10494D01*
X533784Y10512D01*
X533797Y10527D01*
X533836Y10623D01*
X533879Y10717D01*
X533881Y10737D01*
X533889Y10755D01*
X533907Y10922D01*
X533907Y15125D01*
X535764Y19607D01*
X539193Y23036D01*
X543675Y24893D01*
X548525Y24893D01*
X553007Y23036D01*
X556436Y19607D01*
X558097Y15599D01*
X558134Y15538D01*
X558164Y15472D01*
X558199Y15434D01*
X558226Y15390D01*
X558281Y15344D01*
X558330Y15291D01*
X558376Y15266D01*
X558416Y15233D01*
X558483Y15207D01*
X558546Y15172D01*
X558597Y15163D01*
X558645Y15145D01*
X558717Y15141D01*
X558788Y15129D01*
X558839Y15136D01*
X558891Y15134D01*
X558960Y15154D01*
X559031Y15165D01*
X559077Y15188D01*
X559127Y15203D01*
X559186Y15243D01*
X559250Y15276D01*
X559287Y15313D01*
X559329Y15343D01*
X559372Y15400D01*
X559422Y15452D01*
X559457Y15514D01*
X559476Y15540D01*
X559483Y15563D01*
X559503Y15599D01*
X561164Y19607D01*
X564593Y23036D01*
X569075Y24893D01*
X573925Y24893D01*
X578407Y23036D01*
X581836Y19607D01*
X583693Y15125D01*
X583693Y10922D01*
X583696Y10902D01*
X583694Y10883D01*
X583716Y10781D01*
X583732Y10679D01*
X583742Y10662D01*
X583746Y10642D01*
X583799Y10553D01*
X583848Y10462D01*
X583862Y10448D01*
X583872Y10431D01*
X583951Y10364D01*
X584026Y10292D01*
X584044Y10284D01*
X584059Y10271D01*
X584155Y10232D01*
X584249Y10189D01*
X584269Y10187D01*
X584287Y10179D01*
X584454Y10161D01*
X695658Y10161D01*
X695729Y10172D01*
X695801Y10174D01*
X695850Y10192D01*
X695901Y10200D01*
X695964Y10234D01*
X696032Y10259D01*
X696072Y10291D01*
X696118Y10316D01*
X696168Y10368D01*
X696224Y10412D01*
X696252Y10456D01*
X696288Y10494D01*
X696318Y10559D01*
X696357Y10619D01*
X696370Y10670D01*
X696391Y10717D01*
X696399Y10788D01*
X696417Y10858D01*
X696413Y10910D01*
X696419Y10961D01*
X696403Y11032D01*
X696398Y11103D01*
X696377Y11151D01*
X696366Y11202D01*
X696329Y11263D01*
X696301Y11329D01*
X696257Y11385D01*
X696240Y11413D01*
X696222Y11428D01*
X696197Y11460D01*
X694659Y12998D01*
X694659Y18288D01*
X694656Y18308D01*
X694658Y18327D01*
X694636Y18429D01*
X694620Y18531D01*
X694610Y18548D01*
X694606Y18568D01*
X694553Y18657D01*
X694504Y18748D01*
X694490Y18762D01*
X694480Y18779D01*
X694401Y18846D01*
X694326Y18918D01*
X694308Y18926D01*
X694293Y18939D01*
X694197Y18978D01*
X694103Y19021D01*
X694083Y19023D01*
X694065Y19031D01*
X693898Y19049D01*
X624508Y19049D01*
X624418Y19035D01*
X624327Y19027D01*
X624297Y19015D01*
X624265Y19010D01*
X624184Y18967D01*
X624100Y18931D01*
X624068Y18905D01*
X624048Y18894D01*
X624025Y18871D01*
X623969Y18826D01*
X623352Y18209D01*
X586248Y18209D01*
X584759Y19698D01*
X584759Y44704D01*
X584756Y44724D01*
X584758Y44743D01*
X584736Y44845D01*
X584720Y44947D01*
X584710Y44964D01*
X584706Y44984D01*
X584653Y45073D01*
X584604Y45164D01*
X584590Y45178D01*
X584580Y45195D01*
X584501Y45262D01*
X584426Y45334D01*
X584408Y45342D01*
X584393Y45355D01*
X584297Y45394D01*
X584203Y45437D01*
X584183Y45439D01*
X584165Y45447D01*
X583998Y45465D01*
X582578Y45465D01*
X577595Y50448D01*
X577595Y56530D01*
X577584Y56600D01*
X577582Y56672D01*
X577564Y56721D01*
X577556Y56773D01*
X577522Y56836D01*
X577497Y56903D01*
X577465Y56944D01*
X577440Y56990D01*
X577388Y57039D01*
X577344Y57095D01*
X577300Y57123D01*
X577262Y57159D01*
X577197Y57189D01*
X577137Y57228D01*
X577086Y57241D01*
X577039Y57263D01*
X576968Y57271D01*
X576898Y57288D01*
X576846Y57284D01*
X576795Y57290D01*
X576724Y57275D01*
X576653Y57269D01*
X576605Y57249D01*
X576554Y57238D01*
X576493Y57201D01*
X576427Y57173D01*
X576371Y57128D01*
X576343Y57112D01*
X576328Y57094D01*
X576296Y57068D01*
X575336Y56108D01*
X573012Y55145D01*
X570496Y55145D01*
X568172Y56108D01*
X566338Y57942D01*
X566264Y57995D01*
X566195Y58055D01*
X566164Y58067D01*
X566138Y58086D01*
X566051Y58113D01*
X565966Y58147D01*
X565925Y58151D01*
X565903Y58158D01*
X565871Y58157D01*
X565800Y58165D01*
X548799Y58165D01*
X548709Y58151D01*
X548618Y58143D01*
X548589Y58131D01*
X548557Y58126D01*
X548476Y58083D01*
X548392Y58047D01*
X548360Y58021D01*
X548339Y58010D01*
X548317Y57987D01*
X548261Y57942D01*
X517496Y27177D01*
X481442Y27177D01*
X481352Y27163D01*
X481261Y27155D01*
X481232Y27143D01*
X481200Y27138D01*
X481119Y27095D01*
X481035Y27059D01*
X481003Y27033D01*
X480982Y27022D01*
X480960Y26999D01*
X480904Y26954D01*
X479070Y25120D01*
X476746Y24157D01*
X474230Y24157D01*
X471906Y25120D01*
X470072Y26954D01*
X469998Y27007D01*
X469929Y27067D01*
X469898Y27079D01*
X469872Y27098D01*
X469785Y27125D01*
X469700Y27159D01*
X469659Y27163D01*
X469637Y27170D01*
X469605Y27169D01*
X469534Y27177D01*
X469250Y27177D01*
X469179Y27166D01*
X469108Y27164D01*
X469059Y27146D01*
X469007Y27138D01*
X468944Y27104D01*
X468877Y27079D01*
X468836Y27047D01*
X468790Y27022D01*
X468741Y26970D01*
X468685Y26925D01*
X468657Y26882D01*
X468621Y26844D01*
X468590Y26779D01*
X468552Y26719D01*
X468539Y26668D01*
X468517Y26621D01*
X468509Y26550D01*
X468492Y26480D01*
X468496Y26428D01*
X468490Y26377D01*
X468505Y26306D01*
X468511Y26235D01*
X468531Y26187D01*
X468542Y26136D01*
X468579Y26075D01*
X468607Y26008D01*
X468644Y25962D01*
X469619Y23610D01*
X469619Y21094D01*
X468656Y18770D01*
X466878Y16992D01*
X464554Y16029D01*
X463804Y16029D01*
X463784Y16026D01*
X463765Y16028D01*
X463663Y16006D01*
X463561Y15990D01*
X463544Y15980D01*
X463524Y15976D01*
X463435Y15923D01*
X463344Y15874D01*
X463330Y15860D01*
X463313Y15850D01*
X463246Y15771D01*
X463174Y15696D01*
X463166Y15678D01*
X463153Y15663D01*
X463114Y15567D01*
X463071Y15473D01*
X463069Y15453D01*
X463061Y15435D01*
X463043Y15268D01*
X463043Y10922D01*
X463046Y10902D01*
X463044Y10883D01*
X463066Y10781D01*
X463082Y10679D01*
X463092Y10662D01*
X463096Y10642D01*
X463149Y10553D01*
X463198Y10462D01*
X463212Y10448D01*
X463222Y10431D01*
X463301Y10364D01*
X463376Y10292D01*
X463394Y10284D01*
X463409Y10271D01*
X463505Y10232D01*
X463599Y10189D01*
X463619Y10187D01*
X463637Y10179D01*
X463804Y10161D01*
X533146Y10161D01*
X533166Y10164D01*
G37*
G36*
X625712Y46150D02*
X625712Y46150D01*
X625783Y46156D01*
X625831Y46176D01*
X625882Y46187D01*
X625943Y46224D01*
X626009Y46252D01*
X626065Y46297D01*
X626093Y46314D01*
X626108Y46331D01*
X626140Y46357D01*
X642014Y62231D01*
X677498Y62231D01*
X677518Y62234D01*
X677537Y62232D01*
X677639Y62254D01*
X677741Y62270D01*
X677758Y62280D01*
X677778Y62284D01*
X677867Y62337D01*
X677958Y62386D01*
X677972Y62400D01*
X677989Y62410D01*
X678056Y62489D01*
X678128Y62564D01*
X678136Y62582D01*
X678149Y62597D01*
X678188Y62693D01*
X678231Y62787D01*
X678233Y62807D01*
X678241Y62825D01*
X678259Y62992D01*
X678259Y65852D01*
X679767Y67360D01*
X679808Y67418D01*
X679858Y67470D01*
X679880Y67517D01*
X679910Y67559D01*
X679931Y67628D01*
X679961Y67693D01*
X679967Y67745D01*
X679983Y67795D01*
X679981Y67866D01*
X679989Y67937D01*
X679977Y67988D01*
X679976Y68040D01*
X679952Y68108D01*
X679936Y68178D01*
X679910Y68223D01*
X679892Y68271D01*
X679847Y68327D01*
X679810Y68389D01*
X679771Y68423D01*
X679738Y68463D01*
X679678Y68502D01*
X679623Y68549D01*
X679575Y68568D01*
X679531Y68596D01*
X679462Y68614D01*
X679395Y68641D01*
X679324Y68649D01*
X679293Y68657D01*
X679269Y68655D01*
X679228Y68659D01*
X677098Y68659D01*
X675609Y70148D01*
X675609Y72390D01*
X675606Y72410D01*
X675608Y72429D01*
X675586Y72531D01*
X675570Y72633D01*
X675560Y72650D01*
X675556Y72670D01*
X675503Y72759D01*
X675454Y72850D01*
X675440Y72864D01*
X675430Y72881D01*
X675351Y72948D01*
X675276Y73020D01*
X675258Y73028D01*
X675243Y73041D01*
X675147Y73080D01*
X675053Y73123D01*
X675033Y73125D01*
X675015Y73133D01*
X674848Y73151D01*
X649380Y73151D01*
X628013Y94518D01*
X627939Y94571D01*
X627870Y94631D01*
X627839Y94643D01*
X627813Y94662D01*
X627726Y94689D01*
X627641Y94723D01*
X627600Y94727D01*
X627578Y94734D01*
X627546Y94733D01*
X627475Y94741D01*
X625602Y94741D01*
X625582Y94738D01*
X625563Y94740D01*
X625461Y94718D01*
X625359Y94702D01*
X625342Y94692D01*
X625322Y94688D01*
X625233Y94635D01*
X625142Y94586D01*
X625128Y94572D01*
X625111Y94562D01*
X625044Y94483D01*
X624972Y94408D01*
X624964Y94390D01*
X624951Y94375D01*
X624912Y94279D01*
X624869Y94185D01*
X624867Y94165D01*
X624859Y94147D01*
X624841Y93980D01*
X624841Y63077D01*
X624829Y63053D01*
X624823Y62998D01*
X624806Y62944D01*
X624808Y62876D01*
X624800Y62809D01*
X624812Y62731D01*
X624812Y62698D01*
X624820Y62678D01*
X624825Y62643D01*
X624841Y62584D01*
X624841Y61249D01*
X605038Y61249D01*
X605019Y61246D01*
X604999Y61248D01*
X604897Y61226D01*
X604795Y61210D01*
X604778Y61200D01*
X604758Y61196D01*
X604669Y61143D01*
X604578Y61094D01*
X604564Y61080D01*
X604547Y61070D01*
X604480Y60991D01*
X604409Y60916D01*
X604400Y60898D01*
X604387Y60883D01*
X604349Y60787D01*
X604305Y60693D01*
X604303Y60673D01*
X604295Y60655D01*
X604277Y60488D01*
X604277Y60012D01*
X604280Y59992D01*
X604278Y59972D01*
X604300Y59871D01*
X604317Y59769D01*
X604326Y59752D01*
X604330Y59732D01*
X604383Y59643D01*
X604432Y59552D01*
X604446Y59538D01*
X604456Y59521D01*
X604535Y59454D01*
X604610Y59382D01*
X604628Y59374D01*
X604643Y59361D01*
X604740Y59322D01*
X604833Y59279D01*
X604853Y59277D01*
X604871Y59269D01*
X605038Y59251D01*
X624841Y59251D01*
X624841Y57916D01*
X624825Y57857D01*
X624818Y57789D01*
X624802Y57724D01*
X624806Y57668D01*
X624800Y57612D01*
X624816Y57546D01*
X624821Y57478D01*
X624841Y57432D01*
X624841Y46895D01*
X624852Y46825D01*
X624854Y46753D01*
X624872Y46704D01*
X624880Y46653D01*
X624914Y46589D01*
X624939Y46522D01*
X624971Y46481D01*
X624996Y46435D01*
X625048Y46386D01*
X625092Y46330D01*
X625136Y46302D01*
X625174Y46266D01*
X625239Y46236D01*
X625299Y46197D01*
X625350Y46184D01*
X625397Y46162D01*
X625468Y46154D01*
X625538Y46137D01*
X625590Y46141D01*
X625641Y46135D01*
X625712Y46150D01*
G37*
%LPC*%
G36*
X156048Y90659D02*
X156048Y90659D01*
X154559Y92148D01*
X154559Y114252D01*
X156048Y115741D01*
X170281Y115741D01*
X170325Y115748D01*
X170369Y115746D01*
X170446Y115768D01*
X170524Y115780D01*
X170563Y115801D01*
X170605Y115813D01*
X170671Y115858D01*
X170741Y115896D01*
X170772Y115928D01*
X170808Y115953D01*
X170901Y116063D01*
X170911Y116074D01*
X170912Y116077D01*
X170916Y116081D01*
X178688Y127804D01*
X178695Y127818D01*
X178705Y127830D01*
X178745Y127930D01*
X178789Y128028D01*
X178791Y128044D01*
X178797Y128058D01*
X178815Y128225D01*
X178815Y128368D01*
X179494Y129047D01*
X179507Y129065D01*
X179591Y129165D01*
X180121Y129965D01*
X180262Y129994D01*
X180276Y129999D01*
X180292Y130000D01*
X180391Y130043D01*
X180492Y130081D01*
X180504Y130091D01*
X180518Y130097D01*
X180649Y130202D01*
X180750Y130303D01*
X181710Y130303D01*
X181732Y130306D01*
X181862Y130318D01*
X182803Y130509D01*
X182922Y130430D01*
X182936Y130423D01*
X182948Y130413D01*
X183048Y130373D01*
X183146Y130329D01*
X183162Y130327D01*
X183176Y130321D01*
X183343Y130303D01*
X209946Y130303D01*
X210036Y130317D01*
X210127Y130325D01*
X210156Y130337D01*
X210188Y130342D01*
X210269Y130385D01*
X210353Y130421D01*
X210385Y130447D01*
X210406Y130458D01*
X210428Y130481D01*
X210484Y130526D01*
X212318Y132360D01*
X214642Y133323D01*
X217158Y133323D01*
X219482Y132360D01*
X221260Y130582D01*
X222223Y128258D01*
X222223Y125742D01*
X221260Y123418D01*
X219482Y121640D01*
X217158Y120677D01*
X214642Y120677D01*
X212318Y121640D01*
X210484Y123474D01*
X210410Y123527D01*
X210341Y123587D01*
X210310Y123599D01*
X210284Y123618D01*
X210197Y123645D01*
X210112Y123679D01*
X210071Y123683D01*
X210049Y123690D01*
X210017Y123689D01*
X209946Y123697D01*
X184300Y123697D01*
X184256Y123690D01*
X184212Y123692D01*
X184135Y123670D01*
X184057Y123658D01*
X184018Y123637D01*
X183975Y123625D01*
X183910Y123580D01*
X183839Y123542D01*
X183809Y123510D01*
X183773Y123485D01*
X183680Y123375D01*
X183670Y123364D01*
X183669Y123361D01*
X183665Y123357D01*
X175768Y111446D01*
X175761Y111432D01*
X175751Y111420D01*
X175711Y111320D01*
X175667Y111221D01*
X175665Y111206D01*
X175659Y111192D01*
X175641Y111025D01*
X175641Y92148D01*
X174152Y90659D01*
X156048Y90659D01*
G37*
%LPD*%
%LPC*%
G36*
X736358Y46509D02*
X736358Y46509D01*
X734034Y47472D01*
X732256Y49250D01*
X731293Y51574D01*
X731293Y54090D01*
X732256Y56414D01*
X734034Y58192D01*
X736358Y59155D01*
X738953Y59155D01*
X739043Y59169D01*
X739134Y59177D01*
X739163Y59189D01*
X739195Y59194D01*
X739276Y59237D01*
X739360Y59273D01*
X739392Y59299D01*
X739413Y59310D01*
X739435Y59333D01*
X739491Y59378D01*
X747636Y67523D01*
X747689Y67597D01*
X747749Y67666D01*
X747761Y67697D01*
X747780Y67723D01*
X747807Y67810D01*
X747841Y67895D01*
X747845Y67936D01*
X747852Y67958D01*
X747851Y67990D01*
X747859Y68061D01*
X747859Y85252D01*
X749348Y86741D01*
X771452Y86741D01*
X772941Y85252D01*
X772941Y67148D01*
X771452Y65659D01*
X755429Y65659D01*
X755339Y65645D01*
X755248Y65637D01*
X755219Y65625D01*
X755187Y65620D01*
X755106Y65577D01*
X755022Y65541D01*
X754990Y65515D01*
X754969Y65504D01*
X754947Y65481D01*
X754891Y65436D01*
X744162Y54707D01*
X744109Y54633D01*
X744049Y54564D01*
X744037Y54533D01*
X744018Y54507D01*
X743991Y54420D01*
X743957Y54335D01*
X743953Y54294D01*
X743946Y54272D01*
X743947Y54240D01*
X743939Y54169D01*
X743939Y51574D01*
X742976Y49250D01*
X741198Y47472D01*
X738874Y46509D01*
X736358Y46509D01*
G37*
%LPD*%
G36*
X484055Y62245D02*
X484055Y62245D01*
X484146Y62253D01*
X484175Y62265D01*
X484207Y62270D01*
X484288Y62313D01*
X484372Y62349D01*
X484404Y62375D01*
X484425Y62386D01*
X484447Y62409D01*
X484503Y62454D01*
X493326Y71277D01*
X493379Y71351D01*
X493404Y71380D01*
X493418Y71394D01*
X493419Y71397D01*
X493439Y71420D01*
X493451Y71451D01*
X493470Y71477D01*
X493497Y71564D01*
X493498Y71567D01*
X493521Y71617D01*
X493522Y71628D01*
X493531Y71649D01*
X493535Y71690D01*
X493542Y71712D01*
X493541Y71744D01*
X493549Y71815D01*
X493549Y74410D01*
X494512Y76734D01*
X496290Y78512D01*
X498614Y79475D01*
X501130Y79475D01*
X503454Y78512D01*
X504414Y77552D01*
X504430Y77540D01*
X504442Y77525D01*
X504530Y77469D01*
X504613Y77408D01*
X504632Y77403D01*
X504649Y77392D01*
X504750Y77367D01*
X504849Y77336D01*
X504868Y77337D01*
X504888Y77332D01*
X504991Y77340D01*
X505094Y77342D01*
X505113Y77349D01*
X505133Y77351D01*
X505228Y77391D01*
X505325Y77427D01*
X505341Y77439D01*
X505359Y77447D01*
X505490Y77552D01*
X506450Y78512D01*
X508774Y79475D01*
X511290Y79475D01*
X513614Y78512D01*
X515392Y76734D01*
X516355Y74410D01*
X516355Y73791D01*
X516366Y73721D01*
X516368Y73649D01*
X516386Y73600D01*
X516394Y73549D01*
X516428Y73485D01*
X516453Y73418D01*
X516485Y73377D01*
X516510Y73331D01*
X516562Y73282D01*
X516606Y73226D01*
X516650Y73198D01*
X516688Y73162D01*
X516753Y73132D01*
X516813Y73093D01*
X516864Y73080D01*
X516911Y73058D01*
X516982Y73050D01*
X517052Y73033D01*
X517104Y73037D01*
X517155Y73031D01*
X517226Y73046D01*
X517297Y73052D01*
X517345Y73072D01*
X517396Y73083D01*
X517457Y73120D01*
X517523Y73148D01*
X517579Y73193D01*
X517607Y73210D01*
X517622Y73227D01*
X517654Y73253D01*
X519047Y74646D01*
X519059Y74662D01*
X519074Y74674D01*
X519130Y74761D01*
X519191Y74845D01*
X519196Y74865D01*
X519207Y74881D01*
X519232Y74982D01*
X519263Y75081D01*
X519262Y75100D01*
X519267Y75120D01*
X519259Y75223D01*
X519256Y75326D01*
X519250Y75345D01*
X519248Y75365D01*
X519208Y75460D01*
X519172Y75557D01*
X519160Y75573D01*
X519152Y75591D01*
X519047Y75722D01*
X510674Y84095D01*
X510658Y84107D01*
X510645Y84123D01*
X510558Y84179D01*
X510474Y84239D01*
X510455Y84245D01*
X510438Y84256D01*
X510338Y84281D01*
X510239Y84311D01*
X510219Y84311D01*
X510200Y84316D01*
X510097Y84308D01*
X509993Y84305D01*
X509974Y84298D01*
X509954Y84297D01*
X509860Y84256D01*
X509762Y84221D01*
X509746Y84208D01*
X509728Y84200D01*
X509597Y84095D01*
X509550Y84048D01*
X507226Y83085D01*
X504710Y83085D01*
X502386Y84048D01*
X500608Y85826D01*
X499645Y88150D01*
X499645Y88769D01*
X499634Y88839D01*
X499632Y88911D01*
X499614Y88960D01*
X499606Y89011D01*
X499572Y89075D01*
X499547Y89142D01*
X499515Y89183D01*
X499490Y89229D01*
X499438Y89278D01*
X499394Y89334D01*
X499350Y89362D01*
X499312Y89398D01*
X499247Y89428D01*
X499187Y89467D01*
X499136Y89480D01*
X499089Y89502D01*
X499018Y89510D01*
X498948Y89527D01*
X498896Y89523D01*
X498845Y89529D01*
X498774Y89514D01*
X498703Y89508D01*
X498655Y89488D01*
X498604Y89477D01*
X498543Y89440D01*
X498477Y89412D01*
X498421Y89367D01*
X498393Y89350D01*
X498378Y89333D01*
X498346Y89307D01*
X472792Y63753D01*
X458883Y63753D01*
X458814Y63742D01*
X458743Y63740D01*
X458693Y63722D01*
X458641Y63714D01*
X458578Y63681D01*
X458512Y63656D01*
X458470Y63623D01*
X458423Y63598D01*
X458375Y63547D01*
X458319Y63503D01*
X458290Y63459D01*
X458254Y63420D01*
X458224Y63356D01*
X458186Y63297D01*
X458173Y63245D01*
X458150Y63197D01*
X458142Y63127D01*
X458125Y63058D01*
X458129Y63005D01*
X458123Y62953D01*
X458138Y62883D01*
X458143Y62813D01*
X458164Y62764D01*
X458175Y62712D01*
X458212Y62652D01*
X458239Y62586D01*
X458274Y62547D01*
X458302Y62501D01*
X458355Y62455D01*
X458402Y62402D01*
X458464Y62362D01*
X458488Y62341D01*
X458510Y62333D01*
X458543Y62311D01*
X458631Y62284D01*
X458717Y62249D01*
X458756Y62245D01*
X458778Y62238D01*
X458810Y62239D01*
X458883Y62231D01*
X483965Y62231D01*
X484055Y62245D01*
G37*
%LPC*%
G36*
X926845Y77977D02*
X926845Y77977D01*
X926845Y98045D01*
X934265Y98045D01*
X946913Y85397D01*
X946913Y77977D01*
X926845Y77977D01*
G37*
%LPD*%
%LPC*%
G36*
X903731Y77977D02*
X903731Y77977D01*
X903731Y85397D01*
X916379Y98045D01*
X923799Y98045D01*
X923799Y77977D01*
X903731Y77977D01*
G37*
%LPD*%
%LPC*%
G36*
X926845Y54863D02*
X926845Y54863D01*
X926845Y74931D01*
X946913Y74931D01*
X946913Y67511D01*
X934265Y54863D01*
X926845Y54863D01*
G37*
%LPD*%
%LPC*%
G36*
X916379Y54863D02*
X916379Y54863D01*
X903731Y67511D01*
X903731Y74931D01*
X923799Y74931D01*
X923799Y54863D01*
X916379Y54863D01*
G37*
%LPD*%
%LPC*%
G36*
X876475Y29717D02*
X876475Y29717D01*
X876475Y35907D01*
X887383Y46815D01*
X893573Y46815D01*
X893573Y29717D01*
X876475Y29717D01*
G37*
%LPD*%
G36*
X703482Y38104D02*
X703482Y38104D01*
X703501Y38102D01*
X703603Y38124D01*
X703705Y38141D01*
X703722Y38150D01*
X703742Y38154D01*
X703831Y38207D01*
X703922Y38256D01*
X703936Y38270D01*
X703953Y38280D01*
X704020Y38359D01*
X704091Y38434D01*
X704100Y38452D01*
X704113Y38467D01*
X704152Y38563D01*
X704195Y38657D01*
X704197Y38677D01*
X704205Y38695D01*
X704223Y38862D01*
X704223Y45641D01*
X708534Y45641D01*
X709181Y45468D01*
X709760Y45133D01*
X710233Y44660D01*
X710445Y44293D01*
X710521Y44200D01*
X710594Y44108D01*
X710598Y44106D01*
X710601Y44103D01*
X710702Y44039D01*
X710801Y43975D01*
X710805Y43974D01*
X710809Y43972D01*
X710925Y43944D01*
X711040Y43915D01*
X711044Y43916D01*
X711048Y43915D01*
X711167Y43925D01*
X711285Y43934D01*
X711289Y43936D01*
X711293Y43936D01*
X711403Y43984D01*
X711511Y44031D01*
X711515Y44034D01*
X711518Y44035D01*
X711529Y44045D01*
X711642Y44136D01*
X713148Y45641D01*
X714756Y45641D01*
X714776Y45644D01*
X714795Y45642D01*
X714897Y45664D01*
X714999Y45680D01*
X715016Y45690D01*
X715036Y45694D01*
X715125Y45747D01*
X715216Y45796D01*
X715230Y45810D01*
X715247Y45820D01*
X715314Y45899D01*
X715386Y45974D01*
X715394Y45992D01*
X715407Y46007D01*
X715446Y46103D01*
X715489Y46197D01*
X715491Y46217D01*
X715499Y46235D01*
X715517Y46402D01*
X715517Y48848D01*
X715514Y48868D01*
X715516Y48887D01*
X715494Y48989D01*
X715478Y49091D01*
X715468Y49108D01*
X715464Y49128D01*
X715411Y49217D01*
X715362Y49308D01*
X715348Y49322D01*
X715338Y49339D01*
X715259Y49406D01*
X715184Y49478D01*
X715166Y49486D01*
X715151Y49499D01*
X715055Y49538D01*
X714961Y49581D01*
X714941Y49583D01*
X714923Y49591D01*
X714756Y49609D01*
X713148Y49609D01*
X711642Y51114D01*
X711547Y51183D01*
X711450Y51254D01*
X711446Y51256D01*
X711443Y51258D01*
X711330Y51293D01*
X711216Y51329D01*
X711212Y51329D01*
X711208Y51330D01*
X711089Y51327D01*
X710970Y51325D01*
X710966Y51324D01*
X710962Y51324D01*
X710850Y51283D01*
X710738Y51244D01*
X710735Y51241D01*
X710731Y51240D01*
X710637Y51165D01*
X710544Y51092D01*
X710541Y51088D01*
X710539Y51086D01*
X710531Y51074D01*
X710445Y50957D01*
X710233Y50590D01*
X709760Y50117D01*
X709181Y49782D01*
X708534Y49609D01*
X704223Y49609D01*
X704223Y56388D01*
X704220Y56408D01*
X704222Y56427D01*
X704200Y56529D01*
X704183Y56631D01*
X704174Y56648D01*
X704170Y56668D01*
X704117Y56757D01*
X704068Y56848D01*
X704054Y56862D01*
X704044Y56879D01*
X703965Y56946D01*
X703890Y57017D01*
X703872Y57026D01*
X703857Y57039D01*
X703761Y57078D01*
X703667Y57121D01*
X703647Y57123D01*
X703629Y57131D01*
X703462Y57149D01*
X701938Y57149D01*
X701918Y57146D01*
X701899Y57148D01*
X701797Y57126D01*
X701695Y57109D01*
X701678Y57100D01*
X701658Y57096D01*
X701569Y57043D01*
X701478Y56994D01*
X701464Y56980D01*
X701447Y56970D01*
X701380Y56891D01*
X701309Y56816D01*
X701300Y56798D01*
X701287Y56783D01*
X701248Y56687D01*
X701205Y56593D01*
X701203Y56573D01*
X701195Y56555D01*
X701177Y56388D01*
X701177Y49609D01*
X696866Y49609D01*
X696219Y49782D01*
X695640Y50117D01*
X695167Y50590D01*
X694832Y51169D01*
X694659Y51816D01*
X694659Y52228D01*
X694648Y52299D01*
X694646Y52371D01*
X694628Y52420D01*
X694620Y52471D01*
X694586Y52534D01*
X694561Y52602D01*
X694529Y52643D01*
X694504Y52688D01*
X694453Y52738D01*
X694408Y52794D01*
X694364Y52822D01*
X694326Y52858D01*
X694261Y52888D01*
X694201Y52927D01*
X694150Y52940D01*
X694103Y52961D01*
X694032Y52969D01*
X693962Y52987D01*
X693910Y52983D01*
X693859Y52989D01*
X693788Y52973D01*
X693717Y52968D01*
X693669Y52947D01*
X693618Y52936D01*
X693557Y52899D01*
X693491Y52871D01*
X693435Y52827D01*
X693407Y52810D01*
X693392Y52792D01*
X693360Y52767D01*
X691931Y51338D01*
X691920Y51322D01*
X691904Y51310D01*
X691848Y51222D01*
X691788Y51139D01*
X691782Y51120D01*
X691771Y51103D01*
X691746Y51002D01*
X691716Y50903D01*
X691716Y50884D01*
X691711Y50864D01*
X691719Y50761D01*
X691722Y50658D01*
X691729Y50639D01*
X691730Y50619D01*
X691771Y50524D01*
X691806Y50427D01*
X691819Y50411D01*
X691827Y50393D01*
X691931Y50262D01*
X693341Y48852D01*
X693341Y44296D01*
X693345Y44272D01*
X693342Y44248D01*
X693364Y44151D01*
X693380Y44053D01*
X693392Y44032D01*
X693397Y44008D01*
X693449Y43923D01*
X693496Y43836D01*
X693513Y43819D01*
X693526Y43798D01*
X693602Y43735D01*
X693674Y43666D01*
X693696Y43656D01*
X693714Y43641D01*
X693807Y43605D01*
X693897Y43563D01*
X693921Y43560D01*
X693944Y43551D01*
X694043Y43547D01*
X694141Y43536D01*
X694165Y43541D01*
X694189Y43540D01*
X694285Y43567D01*
X694382Y43588D01*
X694403Y43600D01*
X694426Y43607D01*
X694508Y43663D01*
X694593Y43714D01*
X694609Y43732D01*
X694629Y43746D01*
X694688Y43825D01*
X694753Y43901D01*
X694762Y43923D01*
X694776Y43943D01*
X694826Y44069D01*
X695167Y44660D01*
X695640Y45133D01*
X696219Y45468D01*
X696866Y45641D01*
X701177Y45641D01*
X701177Y38862D01*
X701180Y38842D01*
X701178Y38823D01*
X701200Y38721D01*
X701217Y38619D01*
X701226Y38602D01*
X701230Y38582D01*
X701283Y38493D01*
X701332Y38402D01*
X701346Y38388D01*
X701356Y38371D01*
X701435Y38304D01*
X701510Y38233D01*
X701528Y38224D01*
X701543Y38211D01*
X701639Y38172D01*
X701733Y38129D01*
X701753Y38127D01*
X701771Y38119D01*
X701938Y38101D01*
X703462Y38101D01*
X703482Y38104D01*
G37*
%LPC*%
G36*
X166623Y50723D02*
X166623Y50723D01*
X166623Y61741D01*
X173434Y61741D01*
X174081Y61568D01*
X174660Y61233D01*
X175133Y60760D01*
X175468Y60181D01*
X175641Y59534D01*
X175641Y50723D01*
X166623Y50723D01*
G37*
%LPD*%
%LPC*%
G36*
X815923Y77723D02*
X815923Y77723D01*
X815923Y86741D01*
X824734Y86741D01*
X825381Y86568D01*
X825960Y86233D01*
X826433Y85760D01*
X826768Y85181D01*
X826941Y84534D01*
X826941Y77723D01*
X815923Y77723D01*
G37*
%LPD*%
%LPC*%
G36*
X268223Y50723D02*
X268223Y50723D01*
X268223Y61741D01*
X275034Y61741D01*
X275681Y61568D01*
X276260Y61233D01*
X276733Y60760D01*
X277068Y60181D01*
X277241Y59534D01*
X277241Y50723D01*
X268223Y50723D01*
G37*
%LPD*%
%LPC*%
G36*
X801859Y77723D02*
X801859Y77723D01*
X801859Y84534D01*
X802032Y85181D01*
X802367Y85760D01*
X802840Y86233D01*
X803419Y86568D01*
X804066Y86741D01*
X812877Y86741D01*
X812877Y77723D01*
X801859Y77723D01*
G37*
%LPD*%
%LPC*%
G36*
X166623Y36659D02*
X166623Y36659D01*
X166623Y47677D01*
X175641Y47677D01*
X175641Y38866D01*
X175468Y38219D01*
X175133Y37640D01*
X174660Y37167D01*
X174081Y36832D01*
X173434Y36659D01*
X166623Y36659D01*
G37*
%LPD*%
%LPC*%
G36*
X268223Y36659D02*
X268223Y36659D01*
X268223Y47677D01*
X277241Y47677D01*
X277241Y38866D01*
X277068Y38219D01*
X276733Y37640D01*
X276260Y37167D01*
X275681Y36832D01*
X275034Y36659D01*
X268223Y36659D01*
G37*
%LPD*%
%LPC*%
G36*
X154559Y50723D02*
X154559Y50723D01*
X154559Y59534D01*
X154732Y60181D01*
X155067Y60760D01*
X155540Y61233D01*
X156119Y61568D01*
X156766Y61741D01*
X163577Y61741D01*
X163577Y50723D01*
X154559Y50723D01*
G37*
%LPD*%
%LPC*%
G36*
X815923Y65659D02*
X815923Y65659D01*
X815923Y74677D01*
X826941Y74677D01*
X826941Y67866D01*
X826768Y67219D01*
X826433Y66640D01*
X825960Y66167D01*
X825381Y65832D01*
X824734Y65659D01*
X815923Y65659D01*
G37*
%LPD*%
%LPC*%
G36*
X156766Y36659D02*
X156766Y36659D01*
X156119Y36832D01*
X155540Y37167D01*
X155067Y37640D01*
X154732Y38219D01*
X154559Y38866D01*
X154559Y47677D01*
X163577Y47677D01*
X163577Y36659D01*
X156766Y36659D01*
G37*
%LPD*%
%LPC*%
G36*
X804066Y65659D02*
X804066Y65659D01*
X803419Y65832D01*
X802840Y66167D01*
X802367Y66640D01*
X802032Y67219D01*
X801859Y67866D01*
X801859Y74677D01*
X812877Y74677D01*
X812877Y65659D01*
X804066Y65659D01*
G37*
%LPD*%
%LPC*%
G36*
X89497Y14223D02*
X89497Y14223D01*
X89707Y15555D01*
X90301Y17380D01*
X91172Y19090D01*
X92300Y20643D01*
X93657Y22000D01*
X95210Y23128D01*
X96920Y23999D01*
X98745Y24593D01*
X100077Y24803D01*
X100077Y14223D01*
X89497Y14223D01*
G37*
%LPD*%
%LPC*%
G36*
X446023Y125477D02*
X446023Y125477D01*
X456603Y125477D01*
X456393Y124145D01*
X455799Y122320D01*
X454928Y120610D01*
X453800Y119057D01*
X452443Y117700D01*
X450890Y116572D01*
X449180Y115701D01*
X447355Y115107D01*
X446023Y114897D01*
X446023Y125477D01*
G37*
%LPD*%
%LPC*%
G36*
X702173Y77723D02*
X702173Y77723D01*
X702173Y83741D01*
X706484Y83741D01*
X707131Y83568D01*
X707710Y83233D01*
X708183Y82760D01*
X708518Y82181D01*
X708691Y81534D01*
X708691Y77723D01*
X702173Y77723D01*
G37*
%LPD*%
%LPC*%
G36*
X300959Y96773D02*
X300959Y96773D01*
X300959Y100584D01*
X301132Y101231D01*
X301467Y101810D01*
X301940Y102283D01*
X302519Y102618D01*
X303166Y102791D01*
X307477Y102791D01*
X307477Y96773D01*
X300959Y96773D01*
G37*
%LPD*%
%LPC*%
G36*
X694659Y115823D02*
X694659Y115823D01*
X694659Y119634D01*
X694832Y120281D01*
X695167Y120860D01*
X695640Y121333D01*
X696219Y121668D01*
X696866Y121841D01*
X701177Y121841D01*
X701177Y115823D01*
X694659Y115823D01*
G37*
%LPD*%
%LPC*%
G36*
X696866Y87709D02*
X696866Y87709D01*
X696219Y87882D01*
X695640Y88217D01*
X695167Y88690D01*
X694832Y89269D01*
X694659Y89916D01*
X694659Y93727D01*
X701177Y93727D01*
X701177Y87709D01*
X696866Y87709D01*
G37*
%LPD*%
%LPC*%
G36*
X303166Y87709D02*
X303166Y87709D01*
X302519Y87882D01*
X301940Y88217D01*
X301467Y88690D01*
X301132Y89269D01*
X300959Y89916D01*
X300959Y93727D01*
X307477Y93727D01*
X307477Y87709D01*
X303166Y87709D01*
G37*
%LPD*%
%LPC*%
G36*
X303666Y106259D02*
X303666Y106259D01*
X303019Y106432D01*
X302440Y106767D01*
X301967Y107240D01*
X301632Y107819D01*
X301459Y108466D01*
X301459Y112777D01*
X307477Y112777D01*
X307477Y106259D01*
X303666Y106259D01*
G37*
%LPD*%
%LPC*%
G36*
X925321Y76453D02*
X925321Y76453D01*
X925321Y76455D01*
X925323Y76455D01*
X925323Y76453D01*
X925321Y76453D01*
G37*
%LPD*%
%LPC*%
G36*
X814399Y76199D02*
X814399Y76199D01*
X814399Y76201D01*
X814401Y76201D01*
X814401Y76199D01*
X814399Y76199D01*
G37*
%LPD*%
%LPC*%
G36*
X165099Y49199D02*
X165099Y49199D01*
X165099Y49201D01*
X165101Y49201D01*
X165101Y49199D01*
X165099Y49199D01*
G37*
%LPD*%
D10*
X702700Y114300D03*
X719700Y114300D03*
X702700Y95250D03*
X719700Y95250D03*
X700650Y76200D03*
X683650Y76200D03*
X702700Y38100D03*
X719700Y38100D03*
X702700Y57150D03*
X719700Y57150D03*
X326000Y95250D03*
X309000Y95250D03*
X719700Y19050D03*
X702700Y19050D03*
D11*
X685800Y59300D03*
X685800Y42300D03*
D12*
X327500Y76200D03*
X307500Y76200D03*
D11*
X309000Y38100D03*
X326000Y38100D03*
X309000Y114300D03*
X326000Y114300D03*
X326000Y57150D03*
X309000Y57150D03*
X309000Y19050D03*
X326000Y19050D03*
D13*
X760400Y76200D03*
X814400Y76200D03*
D14*
X165100Y103200D03*
X165100Y49200D03*
X266700Y103200D03*
X266700Y49200D03*
D15*
X101600Y12700D03*
X127000Y12700D03*
X368300Y127000D03*
X393700Y127000D03*
X419100Y127000D03*
X444500Y127000D03*
X101600Y133350D03*
X127000Y133350D03*
X571500Y12700D03*
D16*
X925322Y76454D03*
X865378Y76454D03*
D17*
X895096Y28194D03*
D15*
X590550Y127000D03*
D18*
X604800Y22750D03*
X604800Y29250D03*
X604800Y35750D03*
X604800Y41750D03*
X604800Y48250D03*
X604800Y54250D03*
X604800Y60250D03*
X604800Y66250D03*
X604800Y72750D03*
X604800Y79250D03*
X604800Y85750D03*
X604800Y92250D03*
X604800Y98250D03*
X604800Y104250D03*
D15*
X546100Y12700D03*
X450850Y12700D03*
D19*
X308864Y20320D02*
X308864Y36576D01*
X308864Y20320D02*
X309000Y19050D01*
X308864Y36576D02*
X309000Y38100D01*
X308864Y58928D02*
X308864Y75184D01*
X307500Y76200D01*
X308864Y58928D02*
X309000Y57150D01*
X308864Y38608D02*
X296418Y38608D01*
X292608Y42418D01*
X292608Y52832D01*
X296672Y56896D01*
X308864Y56896D01*
X308864Y38608D02*
X309000Y38100D01*
X308864Y56896D02*
X309000Y57150D01*
X306832Y77216D02*
X296672Y77216D01*
X306832Y77216D02*
X307500Y76200D01*
X505968Y89408D02*
X510032Y89408D01*
X524256Y75184D02*
X530352Y69088D01*
X524256Y75184D02*
X510032Y89408D01*
X580898Y68072D02*
X582422Y68072D01*
X581406Y69088D02*
X538480Y69088D01*
X530352Y69088D01*
X582422Y68072D02*
X584200Y66294D01*
X582422Y68072D02*
X581406Y69088D01*
X584200Y66294D02*
X604729Y66294D01*
X604800Y66250D01*
X603504Y48768D02*
X583946Y48768D01*
X580898Y51816D01*
X580898Y68072D01*
X603504Y48768D02*
X604800Y48250D01*
D20*
X719328Y56896D02*
X719328Y38608D01*
D19*
X719700Y38100D01*
X719328Y56896D02*
X719700Y57150D01*
D20*
X721360Y58928D02*
X735584Y73152D01*
D19*
X721360Y58928D02*
X719700Y57150D01*
D20*
X719700Y65160D02*
X714248Y70612D01*
X719700Y65160D02*
X719700Y57150D01*
D19*
X538480Y67056D02*
X538480Y69088D01*
X524256Y75184D02*
X499872Y50800D01*
D21*
X296672Y77216D03*
X505968Y89408D03*
X735584Y73152D03*
X714248Y70612D03*
X538480Y67056D03*
X499872Y50800D03*
D20*
X710184Y129032D02*
X791464Y129032D01*
X710184Y129032D02*
X709168Y128016D01*
X791464Y129032D02*
X794512Y125984D01*
D21*
X794512Y125984D03*
X709168Y128016D03*
D19*
X308864Y113792D02*
X308864Y95504D01*
X309000Y95250D01*
X308864Y113792D02*
X309000Y114300D01*
X308864Y93472D02*
X302768Y93472D01*
X268224Y58928D01*
X268224Y50800D01*
X308864Y93472D02*
X309000Y95250D01*
X268224Y50800D02*
X266700Y49200D01*
X164592Y48768D02*
X128270Y48768D01*
X101600Y22098D01*
X164592Y48768D02*
X165100Y49200D01*
X101600Y22098D02*
X101600Y12700D01*
X266192Y28956D02*
X266192Y48768D01*
X266192Y28956D02*
X261874Y24638D01*
X190754Y24638D01*
X166624Y48768D01*
X266192Y48768D02*
X266700Y49200D01*
X166624Y48768D02*
X165100Y49200D01*
X896112Y46736D02*
X896112Y28448D01*
X896112Y46736D02*
X924560Y75184D01*
X896112Y28448D02*
X895096Y28194D01*
X924560Y75184D02*
X925322Y76454D01*
X563880Y104140D02*
X522732Y104140D01*
X491490Y135382D01*
X452374Y135382D01*
X445008Y128016D01*
X444500Y127000D01*
X626364Y62484D02*
X629412Y62484D01*
X626364Y62484D02*
X624078Y60198D01*
X604829Y60198D01*
X604800Y60250D01*
X703072Y56896D02*
X703072Y38608D01*
X702700Y38100D01*
X703072Y56896D02*
X702700Y57150D01*
X701040Y87376D02*
X701040Y93472D01*
X701040Y87376D02*
X701040Y77216D01*
X700650Y76200D01*
X701040Y93472D02*
X702700Y95250D01*
X703072Y115824D02*
X707136Y115824D01*
X713232Y121920D01*
X727456Y121920D01*
X729488Y119888D01*
X729488Y89408D01*
X727456Y87376D01*
X701040Y87376D01*
X702700Y114300D02*
X703072Y115824D01*
X701040Y75184D02*
X701040Y58928D01*
X702700Y57150D01*
X701040Y75184D02*
X700650Y76200D01*
X790194Y77216D02*
X812800Y77216D01*
X790194Y77216D02*
X778002Y89408D01*
X729488Y89408D01*
X812800Y77216D02*
X814400Y76200D01*
X664464Y87376D02*
X662432Y85344D01*
X662432Y83312D01*
X664464Y87376D02*
X701040Y87376D01*
X574802Y104140D02*
X563880Y104140D01*
X574802Y104140D02*
X584454Y113792D01*
X701040Y113792D01*
X702700Y114300D01*
X843280Y46736D02*
X896112Y46736D01*
X843280Y46736D02*
X814832Y75184D01*
X814400Y76200D01*
X497840Y83312D02*
X479552Y65024D01*
D21*
X563880Y104140D03*
X629412Y62484D03*
X662432Y83312D03*
X479552Y65024D03*
X497840Y83312D03*
X425450Y69850D03*
X434086Y102616D03*
X444754Y92964D03*
X501142Y14224D03*
X546608Y132334D03*
D22*
X137668Y144018D02*
X127000Y133350D01*
X137668Y144018D02*
X852932Y144018D01*
X863600Y133350D01*
X863600Y78232D01*
X865378Y76454D01*
D19*
X398272Y95504D02*
X367792Y125984D01*
X368300Y127000D01*
D21*
X398272Y95504D03*
D19*
X459232Y26416D02*
X463296Y22352D01*
X459232Y26416D02*
X442976Y26416D01*
X440944Y24384D01*
X424688Y30480D02*
X416560Y30480D01*
X410464Y36576D01*
X410464Y91440D02*
X410464Y109728D01*
X394208Y125984D01*
X393700Y127000D01*
D21*
X463296Y22352D03*
X440944Y24384D03*
X424688Y30480D03*
X410464Y36576D03*
X410464Y91440D03*
D19*
X422148Y103632D02*
X422148Y124460D01*
X420624Y125984D01*
X419100Y127000D01*
D21*
X422148Y103632D03*
D19*
X525780Y93218D02*
X531114Y93218D01*
X525780Y93218D02*
X515366Y103632D01*
X455168Y103632D01*
D21*
X531114Y93218D03*
X455168Y103632D03*
D19*
X491744Y54864D02*
X510032Y73152D01*
X491744Y54864D02*
X447040Y54864D01*
X434848Y42672D02*
X394208Y42672D01*
X382016Y30480D01*
D21*
X510032Y73152D03*
X447040Y54864D03*
X434848Y42672D03*
X382016Y30480D03*
D19*
X312928Y48768D02*
X298704Y48768D01*
X312928Y48768D02*
X316992Y44704D01*
X316992Y32512D01*
X321056Y28448D01*
X369824Y28448D01*
X371856Y30480D01*
D21*
X298704Y48768D03*
X371856Y30480D03*
D19*
X288544Y99060D02*
X288544Y99568D01*
X288544Y99060D02*
X251460Y61976D01*
X251460Y37084D01*
X256032Y32512D01*
D21*
X288544Y99568D03*
X256032Y32512D03*
D19*
X737616Y52832D02*
X759968Y75184D01*
X760400Y76200D01*
D21*
X737616Y52832D03*
D19*
X499872Y73152D02*
X485648Y58928D01*
X457200Y58928D01*
X453136Y62992D01*
X445008Y62992D01*
X434848Y52832D01*
X337312Y52832D01*
X332486Y48006D01*
X319786Y48006D01*
X316992Y50800D01*
X316992Y121920D01*
X314960Y123952D01*
X274066Y123952D01*
X266700Y116586D01*
X266700Y103200D01*
D21*
X499872Y73152D03*
D19*
X182118Y127000D02*
X166624Y103632D01*
X165100Y103200D01*
X182118Y127000D02*
X215900Y127000D01*
D21*
X215900Y127000D03*
D19*
X605536Y22352D02*
X698384Y22352D01*
X702700Y19050D01*
X605536Y22352D02*
X604800Y22750D01*
X715264Y20320D02*
X719328Y20320D01*
X715264Y20320D02*
X707136Y28448D01*
X605536Y28448D01*
X719328Y20320D02*
X719700Y19050D01*
X605536Y28448D02*
X604800Y29250D01*
X638302Y40640D02*
X684784Y40640D01*
X638302Y40640D02*
X633476Y35814D01*
X604857Y35814D01*
X684784Y40640D02*
X685800Y42300D01*
X604857Y35814D02*
X604800Y35750D01*
X643382Y58928D02*
X684784Y58928D01*
X643382Y58928D02*
X626364Y41910D01*
X604928Y41910D01*
X684784Y58928D02*
X685800Y59300D01*
X604928Y41910D02*
X604800Y41750D01*
X719328Y104648D02*
X719328Y113792D01*
X719328Y104648D02*
X719328Y95504D01*
X719700Y95250D01*
X719328Y113792D02*
X719700Y114300D01*
X719328Y104648D02*
X605007Y104648D01*
X604800Y104250D01*
X650748Y76454D02*
X683426Y76454D01*
X650748Y76454D02*
X629158Y98044D01*
X605012Y98044D01*
X683426Y76454D02*
X683650Y76200D01*
X605012Y98044D02*
X604800Y98250D01*
X338074Y113792D02*
X327152Y113792D01*
X338074Y113792D02*
X390906Y60960D01*
X430784Y60960D01*
X469392Y99568D01*
X512064Y99568D01*
X525272Y86360D01*
X541782Y92202D02*
X604723Y92202D01*
X541782Y92202D02*
X535686Y86360D01*
X525272Y86360D01*
X327152Y113792D02*
X326000Y114300D01*
X604723Y92202D02*
X604800Y92250D01*
X384048Y38608D02*
X327152Y38608D01*
X384048Y38608D02*
X394208Y48768D01*
X455930Y48768D01*
X467360Y37338D01*
X327152Y38608D02*
X326000Y38100D01*
X544576Y85344D02*
X603504Y85344D01*
X544576Y85344D02*
X538480Y79248D01*
X514096Y54864D02*
X496570Y37338D01*
X467360Y37338D01*
X603504Y85344D02*
X604800Y85750D01*
D21*
X467360Y37338D03*
X538480Y79248D03*
X514096Y54864D03*
D19*
X426720Y20320D02*
X327152Y20320D01*
X426720Y20320D02*
X436880Y30480D01*
X475488Y30480D01*
X327152Y20320D02*
X326000Y19050D01*
X577342Y79248D02*
X603504Y79248D01*
X571754Y61468D02*
X547116Y61468D01*
X516128Y30480D01*
X475488Y30480D01*
X603504Y79248D02*
X604800Y79250D01*
D21*
X475488Y30480D03*
X577342Y79248D03*
X571754Y61468D03*
D19*
X327152Y77216D02*
X327152Y93472D01*
X327152Y77216D02*
X327500Y76200D01*
X327152Y93472D02*
X326000Y95250D01*
X327152Y75184D02*
X327152Y58928D01*
X326000Y57150D01*
X327152Y75184D02*
X327500Y76200D01*
X327152Y56896D02*
X432816Y56896D01*
X442976Y67056D01*
X471424Y67056D01*
X499872Y95504D01*
X510032Y95504D01*
X532384Y73152D01*
X603504Y73152D01*
X327152Y56896D02*
X326000Y57150D01*
X603504Y73152D02*
X604800Y72750D01*
M02*
