G04 EAGLE Gerber RS-274X export*
G75*
%MOMM*%
%FSLAX34Y34*%
%LPD*%
%INSilkscreen Top*%
%IPPOS*%
%AMOC8*
5,1,8,0,0,1.08239X$1,22.5*%
G01*
%ADD10C,0.177800*%
%ADD11C,0.152400*%
%ADD12C,0.101600*%
%ADD13C,0.127000*%
%ADD14C,0.076200*%
%ADD15C,0.203200*%
%ADD16C,0.050800*%


D10*
X103025Y46028D02*
X99678Y42681D01*
X99678Y35986D01*
X103025Y32639D01*
X116414Y32639D01*
X119761Y35986D01*
X119761Y42681D01*
X116414Y46028D01*
X109719Y46028D01*
X109719Y39333D01*
X106372Y52753D02*
X116414Y52753D01*
X119761Y56100D01*
X119761Y66141D01*
X106372Y66141D01*
X103025Y76214D02*
X119761Y76214D01*
X103025Y76214D02*
X99678Y79561D01*
X109719Y79561D02*
X109719Y72866D01*
X106372Y86275D02*
X106372Y89623D01*
X119761Y89623D01*
X119761Y92970D02*
X119761Y86275D01*
X99678Y89623D02*
X96331Y89623D01*
X99678Y99685D02*
X119761Y99685D01*
X106372Y106379D02*
X99678Y99685D01*
X106372Y106379D02*
X99678Y113073D01*
X119761Y113073D01*
D11*
X142075Y35066D02*
X142075Y18796D01*
X136652Y35066D02*
X147499Y35066D01*
X153024Y26931D02*
X163870Y26931D01*
X158447Y32354D02*
X158447Y21508D01*
X73749Y19558D02*
X73749Y35828D01*
X68326Y35828D02*
X79173Y35828D01*
X84698Y27693D02*
X95544Y27693D01*
D12*
X730255Y120152D02*
X732204Y118203D01*
X730255Y120152D02*
X726357Y120152D01*
X724408Y118203D01*
X724408Y110407D01*
X726357Y108458D01*
X730255Y108458D01*
X732204Y110407D01*
X736102Y116254D02*
X740000Y120152D01*
X740000Y108458D01*
X736102Y108458D02*
X743898Y108458D01*
X747796Y110407D02*
X747796Y118203D01*
X749745Y120152D01*
X753643Y120152D01*
X755592Y118203D01*
X755592Y110407D01*
X753643Y108458D01*
X749745Y108458D01*
X747796Y110407D01*
X755592Y118203D01*
X732204Y99153D02*
X730255Y101102D01*
X726357Y101102D01*
X724408Y99153D01*
X724408Y91357D01*
X726357Y89408D01*
X730255Y89408D01*
X732204Y91357D01*
X736102Y97204D02*
X740000Y101102D01*
X740000Y89408D01*
X736102Y89408D02*
X743898Y89408D01*
X747796Y89408D02*
X755592Y89408D01*
X747796Y89408D02*
X755592Y97204D01*
X755592Y99153D01*
X753643Y101102D01*
X749745Y101102D01*
X747796Y99153D01*
X652672Y80103D02*
X650723Y82052D01*
X646825Y82052D01*
X644876Y80103D01*
X644876Y72307D01*
X646825Y70358D01*
X650723Y70358D01*
X652672Y72307D01*
X656570Y78154D02*
X660468Y82052D01*
X660468Y70358D01*
X656570Y70358D02*
X664366Y70358D01*
X668264Y82052D02*
X676060Y82052D01*
X668264Y82052D02*
X668264Y76205D01*
X672162Y78154D01*
X674111Y78154D01*
X676060Y76205D01*
X676060Y72307D01*
X674111Y70358D01*
X670213Y70358D01*
X668264Y72307D01*
X730255Y43952D02*
X732204Y42003D01*
X730255Y43952D02*
X726357Y43952D01*
X724408Y42003D01*
X724408Y34207D01*
X726357Y32258D01*
X730255Y32258D01*
X732204Y34207D01*
X736102Y40054D02*
X740000Y43952D01*
X740000Y32258D01*
X736102Y32258D02*
X743898Y32258D01*
X751694Y42003D02*
X755592Y43952D01*
X751694Y42003D02*
X747796Y38105D01*
X747796Y34207D01*
X749745Y32258D01*
X753643Y32258D01*
X755592Y34207D01*
X755592Y36156D01*
X753643Y38105D01*
X747796Y38105D01*
X732204Y61053D02*
X730255Y63002D01*
X726357Y63002D01*
X724408Y61053D01*
X724408Y53257D01*
X726357Y51308D01*
X730255Y51308D01*
X732204Y53257D01*
X736102Y59104D02*
X740000Y63002D01*
X740000Y51308D01*
X736102Y51308D02*
X743898Y51308D01*
X747796Y63002D02*
X755592Y63002D01*
X755592Y61053D01*
X747796Y53257D01*
X747796Y51308D01*
X335172Y99153D02*
X333223Y101102D01*
X329325Y101102D01*
X327376Y99153D01*
X327376Y91357D01*
X329325Y89408D01*
X333223Y89408D01*
X335172Y91357D01*
X339070Y97204D02*
X342968Y101102D01*
X342968Y89408D01*
X339070Y89408D02*
X346866Y89408D01*
X350764Y91357D02*
X352713Y89408D01*
X356611Y89408D01*
X358560Y91357D01*
X358560Y99153D01*
X356611Y101102D01*
X352713Y101102D01*
X350764Y99153D01*
X350764Y97204D01*
X352713Y95255D01*
X358560Y95255D01*
X732267Y24902D02*
X734216Y22953D01*
X732267Y24902D02*
X728369Y24902D01*
X726420Y22953D01*
X726420Y15157D01*
X728369Y13208D01*
X732267Y13208D01*
X734216Y15157D01*
X738114Y22953D02*
X740063Y24902D01*
X743961Y24902D01*
X745910Y22953D01*
X745910Y21004D01*
X743961Y19055D01*
X745910Y17106D01*
X745910Y15157D01*
X743961Y13208D01*
X740063Y13208D01*
X738114Y15157D01*
X738114Y17106D01*
X740063Y19055D01*
X738114Y21004D01*
X738114Y22953D01*
X740063Y19055D02*
X743961Y19055D01*
X681897Y23016D02*
X679948Y21067D01*
X679948Y17169D01*
X681897Y15220D01*
X689693Y15220D01*
X691642Y17169D01*
X691642Y21067D01*
X689693Y23016D01*
X689693Y26914D02*
X691642Y28863D01*
X691642Y32761D01*
X689693Y34710D01*
X681897Y34710D01*
X679948Y32761D01*
X679948Y28863D01*
X681897Y26914D01*
X683846Y26914D01*
X685795Y28863D01*
X685795Y34710D01*
D13*
X326000Y69700D02*
X309000Y69700D01*
X309000Y82700D01*
X326000Y82700D01*
X326000Y69700D01*
X313500Y70200D02*
X313500Y82200D01*
X314500Y82200D01*
X314500Y70200D01*
D14*
X333613Y72153D02*
X333613Y79525D01*
X333613Y72153D02*
X337299Y72153D01*
X338528Y73382D01*
X338528Y78297D01*
X337299Y79525D01*
X333613Y79525D01*
X341097Y78297D02*
X342326Y79525D01*
X344783Y79525D01*
X346012Y78297D01*
X346012Y77068D01*
X344783Y75839D01*
X343554Y75839D01*
X344783Y75839D02*
X346012Y74610D01*
X346012Y73382D01*
X344783Y72153D01*
X342326Y72153D01*
X341097Y73382D01*
D12*
X266924Y41666D02*
X266924Y29972D01*
X266924Y41666D02*
X272771Y41666D01*
X274720Y39717D01*
X274720Y35819D01*
X272771Y33870D01*
X266924Y33870D01*
X270822Y33870D02*
X274720Y29972D01*
X278618Y37768D02*
X282516Y41666D01*
X282516Y29972D01*
X278618Y29972D02*
X286414Y29972D01*
X290312Y39717D02*
X292261Y41666D01*
X296159Y41666D01*
X298108Y39717D01*
X298108Y37768D01*
X296159Y35819D01*
X294210Y35819D01*
X296159Y35819D02*
X298108Y33870D01*
X298108Y31921D01*
X296159Y29972D01*
X292261Y29972D01*
X290312Y31921D01*
X279400Y109982D02*
X279400Y121676D01*
X285247Y121676D01*
X287196Y119727D01*
X287196Y115829D01*
X285247Y113880D01*
X279400Y113880D01*
X283298Y113880D02*
X287196Y109982D01*
X296941Y109982D02*
X296941Y121676D01*
X291094Y115829D01*
X298890Y115829D01*
X333736Y62494D02*
X333736Y50800D01*
X333736Y62494D02*
X339583Y62494D01*
X341532Y60545D01*
X341532Y56647D01*
X339583Y54698D01*
X333736Y54698D01*
X337634Y54698D02*
X341532Y50800D01*
X345430Y62494D02*
X353226Y62494D01*
X345430Y62494D02*
X345430Y56647D01*
X349328Y58596D01*
X351277Y58596D01*
X353226Y56647D01*
X353226Y52749D01*
X351277Y50800D01*
X347379Y50800D01*
X345430Y52749D01*
X279380Y22616D02*
X279380Y10922D01*
X279380Y22616D02*
X285227Y22616D01*
X287176Y20667D01*
X287176Y16769D01*
X285227Y14820D01*
X279380Y14820D01*
X283278Y14820D02*
X287176Y10922D01*
X291074Y22616D02*
X298870Y22616D01*
X298870Y20667D01*
X291074Y12871D01*
X291074Y10922D01*
D15*
X757400Y88700D02*
X757400Y93700D01*
X817400Y93700D01*
X817400Y88700D01*
X817400Y63700D02*
X817400Y58700D01*
X757400Y58700D01*
X757400Y63700D01*
X774900Y83700D02*
X799900Y83700D01*
X799400Y68700D02*
X774900Y68700D01*
D12*
X783004Y111853D02*
X781055Y113802D01*
X777157Y113802D01*
X775208Y111853D01*
X775208Y109904D01*
X777157Y107955D01*
X781055Y107955D01*
X783004Y106006D01*
X783004Y104057D01*
X781055Y102108D01*
X777157Y102108D01*
X775208Y104057D01*
X786902Y109904D02*
X790800Y113802D01*
X790800Y102108D01*
X786902Y102108D02*
X794698Y102108D01*
D15*
X182600Y106200D02*
X177600Y106200D01*
X182600Y106200D02*
X182600Y46200D01*
X177600Y46200D01*
X152600Y46200D02*
X147600Y46200D01*
X147600Y106200D01*
X152600Y106200D01*
X172600Y88700D02*
X172600Y63700D01*
X157600Y64200D02*
X157600Y88700D01*
D12*
X190998Y71867D02*
X192947Y73816D01*
X190998Y71867D02*
X190998Y67969D01*
X192947Y66020D01*
X194896Y66020D01*
X196845Y67969D01*
X196845Y71867D01*
X198794Y73816D01*
X200743Y73816D01*
X202692Y71867D01*
X202692Y67969D01*
X200743Y66020D01*
X202692Y77714D02*
X202692Y85510D01*
X202692Y77714D02*
X194896Y85510D01*
X192947Y85510D01*
X190998Y83561D01*
X190998Y79663D01*
X192947Y77714D01*
D15*
X279200Y106200D02*
X284200Y106200D01*
X284200Y46200D01*
X279200Y46200D01*
X254200Y46200D02*
X249200Y46200D01*
X249200Y106200D01*
X254200Y106200D01*
X274200Y88700D02*
X274200Y63700D01*
X259200Y64200D02*
X259200Y88700D01*
D12*
X288451Y58322D02*
X286502Y56373D01*
X286502Y52475D01*
X288451Y50526D01*
X290400Y50526D01*
X292349Y52475D01*
X292349Y56373D01*
X294298Y58322D01*
X296247Y58322D01*
X298196Y56373D01*
X298196Y52475D01*
X296247Y50526D01*
X288451Y62220D02*
X286502Y64169D01*
X286502Y68067D01*
X288451Y70016D01*
X290400Y70016D01*
X292349Y68067D01*
X292349Y66118D01*
X292349Y68067D02*
X294298Y70016D01*
X296247Y70016D01*
X298196Y68067D01*
X298196Y64169D01*
X296247Y62220D01*
D11*
X107950Y25400D02*
X95250Y25400D01*
X107950Y25400D02*
X114300Y19050D01*
X114300Y6350D02*
X107950Y0D01*
X114300Y19050D02*
X120650Y25400D01*
X133350Y25400D01*
X139700Y19050D01*
X139700Y6350D02*
X133350Y0D01*
X120650Y0D01*
X114300Y6350D01*
X88900Y6350D02*
X88900Y19050D01*
X95250Y25400D01*
X88900Y6350D02*
X95250Y0D01*
X107950Y0D01*
X139700Y6350D02*
X139700Y19050D01*
D13*
X80648Y18425D02*
X76835Y14612D01*
X80648Y18425D02*
X80648Y6985D01*
X76835Y6985D02*
X84462Y6985D01*
D11*
X361950Y139700D02*
X374650Y139700D01*
X381000Y133350D01*
X381000Y120650D02*
X374650Y114300D01*
X381000Y133350D02*
X387350Y139700D01*
X400050Y139700D01*
X406400Y133350D01*
X406400Y120650D02*
X400050Y114300D01*
X387350Y114300D01*
X381000Y120650D01*
X355600Y120650D02*
X355600Y133350D01*
X361950Y139700D01*
X355600Y120650D02*
X361950Y114300D01*
X374650Y114300D01*
X406400Y133350D02*
X412750Y139700D01*
X425450Y139700D01*
X431800Y133350D01*
X431800Y120650D02*
X425450Y114300D01*
X412750Y114300D01*
X406400Y120650D01*
X438150Y139700D02*
X450850Y139700D01*
X457200Y133350D01*
X457200Y120650D02*
X450850Y114300D01*
X431800Y133350D02*
X438150Y139700D01*
X431800Y120650D02*
X438150Y114300D01*
X450850Y114300D01*
X457200Y120650D02*
X457200Y133350D01*
X107950Y146050D02*
X95250Y146050D01*
X107950Y146050D02*
X114300Y139700D01*
X114300Y127000D02*
X107950Y120650D01*
X114300Y139700D02*
X120650Y146050D01*
X133350Y146050D01*
X139700Y139700D01*
X139700Y127000D02*
X133350Y120650D01*
X120650Y120650D01*
X114300Y127000D01*
X88900Y127000D02*
X88900Y139700D01*
X95250Y146050D01*
X88900Y127000D02*
X95250Y120650D01*
X107950Y120650D01*
X139700Y127000D02*
X139700Y139700D01*
D13*
X80648Y139075D02*
X76835Y135262D01*
X80648Y139075D02*
X80648Y127635D01*
X76835Y127635D02*
X84462Y127635D01*
D11*
X565150Y25400D02*
X577850Y25400D01*
X584200Y19050D01*
X584200Y6350D02*
X577850Y0D01*
X558800Y6350D02*
X558800Y19050D01*
X565150Y25400D01*
X558800Y6350D02*
X565150Y0D01*
X577850Y0D01*
X584200Y6350D02*
X584200Y19050D01*
D13*
X550548Y18425D02*
X546735Y14612D01*
X550548Y18425D02*
X550548Y6985D01*
X546735Y6985D02*
X554362Y6985D01*
D11*
X584200Y139700D02*
X596900Y139700D01*
X603250Y133350D01*
X603250Y120650D02*
X596900Y114300D01*
X577850Y120650D02*
X577850Y133350D01*
X584200Y139700D01*
X577850Y120650D02*
X584200Y114300D01*
X596900Y114300D01*
X603250Y120650D02*
X603250Y133350D01*
D13*
X569598Y132725D02*
X565785Y128912D01*
X569598Y132725D02*
X569598Y121285D01*
X565785Y121285D02*
X573412Y121285D01*
X673800Y15750D02*
X341800Y15750D01*
X341800Y129750D01*
X673800Y129750D01*
X673800Y15750D01*
X355600Y16050D02*
X355600Y107950D01*
X673100Y107950D01*
X603600Y111850D02*
X603600Y117850D01*
X603600Y19850D02*
X603600Y15850D01*
D16*
X625254Y22033D02*
X627118Y23897D01*
X627118Y18304D01*
X625254Y18304D02*
X628983Y18304D01*
D11*
X552450Y25400D02*
X539750Y25400D01*
X552450Y25400D02*
X558800Y19050D01*
X558800Y6350D02*
X552450Y0D01*
X533400Y6350D02*
X533400Y19050D01*
X539750Y25400D01*
X533400Y6350D02*
X539750Y0D01*
X552450Y0D01*
X558800Y6350D02*
X558800Y19050D01*
D13*
X525148Y18425D02*
X521335Y14612D01*
X525148Y18425D02*
X525148Y6985D01*
X521335Y6985D02*
X528962Y6985D01*
D11*
X457200Y25400D02*
X444500Y25400D01*
X457200Y25400D02*
X463550Y19050D01*
X463550Y6350D02*
X457200Y0D01*
X438150Y6350D02*
X438150Y19050D01*
X444500Y25400D01*
X438150Y6350D02*
X444500Y0D01*
X457200Y0D01*
X463550Y6350D02*
X463550Y19050D01*
D13*
X429898Y18425D02*
X426085Y14612D01*
X429898Y18425D02*
X429898Y6985D01*
X426085Y6985D02*
X433712Y6985D01*
M02*
